<svg height="303" viewBox="0 0 491 303" width="491" xmlns="http://www.w3.org/2000/svg" xmlns:xlink="http://www.w3.org/1999/xlink"><filter id="a" height="226%" width="134.8%" x="-17.6%" y="-63%"><feOffset dx="0" dy="10" in="SourceAlpha" result="shadowOffsetOuter1"/><feGaussianBlur in="shadowOffsetOuter1" result="shadowBlurOuter1" stdDeviation="7.5"/><feColorMatrix in="shadowBlurOuter1" result="shadowMatrixOuter1" type="matrix" values="0 0 0 0 0   0 0 0 0 0   0 0 0 0 0  0 0 0 0.5 0"/><feMerge><feMergeNode in="shadowMatrixOuter1"/><feMergeNode in="SourceGraphic"/></feMerge></filter><filter id="b" height="221.1%" width="122.9%" x="-11.4%" y="-60.6%"><feOffset dx="0" dy="7" in="SourceAlpha" result="shadowOffsetOuter1"/><feGaussianBlur in="shadowOffsetOuter1" result="shadowBlurOuter1" stdDeviation="7.5"/><feColorMatrix in="shadowBlurOuter1" result="shadowMatrixOuter1" type="matrix" values="0 0 0 0 0   0 0 0 0 0   0 0 0 0 0  0 0 0 0.5 0"/><feMerge><feMergeNode in="shadowMatrixOuter1"/><feMergeNode in="SourceGraphic"/></feMerge></filter><g fill="none"><circle cx="246.5" cy="151.5" fill="#3e96ee" r="151.5"/><ellipse cx="245.5" cy="153" fill="#2dd92d" rx="245.5" ry="54"/><g filter="url(#a)" transform="translate(109.197368 149)"><path d="m26.4412476 77c-3.2126734 0-6.2830132-.5205563-9.1195191-1.5440126-4.137842-1.4910436-7.65958276-3.8565813-10.46152196-7.0261907-2.80397254-3.1696093-4.82917678-7.0582561-6.01867928-11.5664968-1.1793358-4.4587219-1.35420283-9.3671719-.52663443-14.5909999.79910167-5.0501063 2.32817154-9.9762126 4.53840951-14.6403157 2.20413795-4.6570001 4.98371044-8.8855812 8.25535066-12.5757469 3.2940069-3.715128 7.1227816-6.83866869 11.3785571-9.28234052 4.3188091-2.48243449 9.0381856-4.03720319 14.0259628-4.61803441.0162667-.00345008.0325334-.00345008.0488001-.00710311.969902-.09903761 1.9845375-.14875936 3.0215396-.14875936.8540018 0 1.740537.03186251 2.6352055.09924056 2.0862044.15220944 4.1541088.58793433 6.1508463 1.29621559 2.0516376.72593755 3.9731416 1.76360004 5.7055453 3.09167815 1.8645705 1.42711571 3.3956737 3.2757501 4.5526428 5.4963844 1.1590025 2.2240843 1.8422039 4.8658313 2.0231709 7.8550218.1748671 2.8649876-.2440005 6.1975625-1.2464359 9.9019344-.313134 1.1614595-1.1529024 2.0574657-2.2061713 2.4010532l1.9662375-.0921375c.0488001-.0034501.0955668-.0034501.1423336-.0034501.9882021 0 1.9235373.4744876 2.5518387 1.3033187.6588013.8639408.8967018 2.0150501.6425346 3.0987813-.3843008 1.6643595-.813335 3.4245095-1.276936 5.2554876 2.1411045-2.9181594 4.7356433-5.3192126 7.7409163-7.1680499-.2643339-.1769689-.5042678-.3931063-.7177682-.6480064-.8804352-1.0589718-1.0878356-2.5853281-.5246011-3.8707875l6.1894796-14.1021032c.3802341-.8641437 1.0675023-1.5265592 1.9052373-1.8380812 1.5799034-.5842813 3.3102736-1.0589718 5.1443442-1.4060093 1.5880366-.2938657 3.4099071-.4710375 5.4229113-.5276594.2379005-.0071031.4737677-.0105532.7157348-.0105532 1.8767706 0 3.9162083.2088314 6.0634128.6195939.0467667.0107561.0915001.0178593.1382669.0284124 1.4172363.3399345 3.0012063.8075219 4.7071765 1.3883531 2.017071.690422 3.910108 1.8131188 5.630312 3.336025 1.77307 1.572425 3.24724 3.6901657 4.387942 6.3002532 1.152903 2.6382969 1.712071 5.8647312 1.712071 9.8629687 0 .8004188-.144367 1.8167719-.473768 3.3007125l-.058967.2620032c-.2806 1.2324905-.636435 2.64195-1.053269 4.2072718l-.449367 1.6432532c-.388368 1.4060093-.817402 2.9181593-1.281003 4.5153437-.447334 1.5513187-.915002 3.1129875-1.38267 4.6464469l-1.274902 4.1400968c-1.262703 4.090375-2.659606 8.55965-4.152076 13.2840281-.366 1.1580094-1.260669 2.0327064-2.3708712 2.3089157l-17.9828377 4.5155468c-.2501005.063725-.5022344.0919345-.7482682.0919345-.9780354 0-1.9235374-.4710375-2.5559054-1.3102189-.7584349-1.0058-.945502-2.3728437-.494101-3.5627156-1.0878356.1309001-2.1878713.1982781-3.2858736.1982781-1.8706706 0-3.7250745-.2337937-5.5164449-.6906249-1.9113373-.4886938-3.6478076-1.2749063-5.1667108-2.3409812-1.6490368-1.1580094-2.9768062-2.6949189-3.9487416-4.5685156-.9841354-1.9016033-1.4863698-4.1612032-1.4863698-6.7144658 0-.0142062 0-.0284124 0-.0389656.0040667-.2303436.0081334-.4604843.0142334-.690625-.6628681 1.3952532-1.3867363 2.7694001-2.1614379 4.1116844-1.6266701 2.8154687-3.6376409 5.3971438-5.9719125 7.6707469-2.3485049 2.2878094-5.1240107 4.2533406-8.2451839 5.8434219-3.14964 1.6042875-6.8157477 2.6843657-10.8905562 3.212228-1.4701031.1946252-2.9422395.2973158-4.3615091.2973158zm56.827719-25.4453595c.1606337.0742782.3558341.1309001.5754346.1698658.0345667-.0955876.1911337-.5806283.1911337-.5806283.3802341-1.1724186.7808016-2.3622905 1.1874692-3.523953-.4981678.3612438-1.427403 1.2643531-1.9276041 3.7469905-.0101667.0708282-.0203334.1345532-.0264334.187725zm-46.0245964-26.4371562c-.1301336 0-.2765339.0105532-.4310676.0318625-.0122 0-.0264334.0036531-.0386334.0036531-1.6510701.2053812-3.1435399.7896625-4.5729762 1.7847064-1.5514366 1.0802811-2.9544396 2.4436718-4.1764754 4.0550624-1.258636 1.6574593-2.3159716 3.4918875-3.1394733 5.4503157-.8235017 1.9620811-1.3969029 3.9381655-1.6958035 5.8752843-.307034 1.9655313-.4066676 3.7680969-.300934 5.3583812.0894668 1.3173219.3782008 2.4363657.8641685 3.3218188.1016668.187725.2135004.3612437.3355007.5242093-.0589668-.4215187-.0508335-.8570406.0366-1.2820094l2.9910396-14.9556937c.3151674-1.575875 1.5799034-2.7233313 3.0764398-2.7941594l8.4566511-.3967593c-.4676677-.7685562-.6425347-1.7140812-.4717343-2.6311938.506301-2.7306374.0467667-3.7185781-.1098003-3.9558219-.156567-.2408968-.2826339-.3896562-.8235017-.3896562zm160.6011368 49.3327032c-3.458708 0-6.431447-.6480064-8.832819-1.9229126-2.551838-1.3564906-4.621776-3.2653999-6.150846-5.6770063-1.451803-2.2914623-2.466439-4.9510686-3.019506-7.8939874-.494101-2.6384999-.754369-5.4150031-.768602-8.2552312-1.543303 5.3902436-3.529874 11.2158063-5.931246 17.4099187-.485967 1.2535969-1.592103 2.0966343-2.852772 2.1745655l-16.728269 1.0340095c-.063033.003653-.126067.0071031-.191133.0071031-1.039036 0-2.023171-.5276594-2.645373-1.4307687-.662868-.9597313-.831635-2.2098782-.449367-3.328922l.544934-1.5900813c1.744604-5.1493468 3.208607-9.8489655 4.351343-13.9606498.522567-1.8981532 1.010568-3.8034095 1.439603-5.6556969.1586-.6727657.296867-1.320975.420901-1.9371188-.738102 2.2949124-1.557537 4.6923126-2.450172 7.1467406l-.370068 1.005597c-1.217969 3.3043655-2.427805 6.7254248-3.596974 10.1783467-.345667 1.0269064-1.112236 1.823875-2.078071 2.1601564-2.065871.7190374-4.558743 1.2395937-7.629083 1.5866312-1.104102.124-2.277338.187725-3.489207.187725-2.173638 0-4.562809-.2019312-7.102448-.6021406-.994302-.1556595-1.866604-.7931126-2.370872-1.7280845-.504267-.9349718-.583568-2.0647718-.215534-3.0705717 1.691737-4.6214845 3.084574-8.8218562 4.137842-12.4836095.366001-1.3104218.711669-2.6313968 1.030903-3.9205093 0 .0036531-.500201 1.25725-.500201 1.25725-.254168.6445562-.490035 1.2466968-.701502 1.7991156-.770635 2.0258062-1.488403 3.9842343-2.128904 5.8081093l-1.793404 5.2094188-.311101.9102125-.483934 1.5263562c-.394468 1.2607001-.770635 2.4824345-1.116302 3.6298908-.404635 1.3493874-1.52297 2.3125687-2.836506 2.4402217l-15.469633 1.51215c-.099633.0105532-.2013.0142063-.2989.0142063-.976002 0-1.909304-.4675874-2.537606-1.2856624-.691335-.8994564-.929235-2.1106376-.628301-3.2333344l1.041069-3.9097532c.510368-1.9089093 1.004469-3.7398874 1.478236-5.4929343.004067-.0140032.0061-.0282095.0122-.0424157.337534-1.1827688.662868-2.4010532.976002-3.6122344l.567301-2.1816686.607968-2.3125688c.152501-.5771782.294834-1.13325.422935-1.6538063l.227733-.9065594c.172834-.6871749.321268-1.2253875.449368-1.6503563.634401-2.5250531 1.64497-5.666453 3.09474-9.6009656l1.78527-4.8057594c1.026836-2.7446406 2.210238-5.8752843 3.521741-9.317653.341601-.9031094 1.016669-1.6113906 1.864571-1.9618783.766568-.318828 1.82797-.634003 3.336707-1.0023499l.276533-.0671751c1.512804-.3577936 3.123207-.6906249 4.798677-.9917967 1.378603-.2477969 2.724673-.4673844 4.003642-.6622125l.754368-.1097937c1.350136-.1948281 2.374938-.2867626 3.145573-.2867626.248068 0 .471735.0105532.681168.0282095.996336.0886873 1.899138.6587624 2.458306 1.5476655.3172.5029.500201 1.0802812.551034 1.6680126 1.256603-.4213158 2.604706-.7933156 4.021942-1.1224939 1.579903-.3648968 3.19234-.5489687 4.780377-.5489687.424967 0 .851968.0142062 1.276936.0389656.032533.0034501.0671.0034501.099633.0071031 1.70597.1593125 3.172007.6869719 4.361509 1.5687719 1.085803.8075219 1.986571 1.8133218 2.667739 2.9960907.323301.5595219.605935 1.1509063.854002 1.767253.156567-.0955875.319234-.191378.483934-.2904156 1.61447-.9633843 3.261474-1.8699437 4.900344-2.6985719 1.671403-.8428344 3.322474-1.572425 4.900344-2.1638094 1.71817-.6482092 3.24114-.9633843 4.648209-.9633843h.138267l.233834.0071031c3.790141.1026907 5.892612 2.0647718 6.986548 3.6938187 1.297269 1.9336688 2.100438 4.3807907 2.381038 7.2741907.250101 2.5640187.158601 5.471422-.276534 8.6410314-.0122.0886873-.022366.1771717-.0366.2656562 1.342003-2.8436783 2.99104-5.6910095 4.924744-8.492475l.451401-.6445563c1.862537-2.705675 4.290342-5.219972 7.202082-7.4440563 2.917839-2.2275344 6.087812-3.9097532 9.428586-4.9971374 2.572172-.8391814 5.217544-1.2641501 7.85885-1.2641501.856035 0 1.726304.0458657 2.586405.1345531 3.712875.3789 7.191915 1.8768439 10.339522 4.4445157 1.937771 1.5795281 3.416007 3.8460281 4.398109 6.7394281.866202 2.5534655 1.403003 5.3121094 1.598204 8.1984063.191133 2.8367781.0793 5.6451437-.329401 8.3437156-.435134 2.8722936-1.211869 5.3299687-2.311905 7.299153-.597801 1.065872-1.667337 1.7209814-2.826339 1.7209814-1.60227 0-3.340774.0673781-5.193144.2019312l3.450573.3717969c1.057336.1134468 1.998771.7685562 2.525406 1.76015.530701.9915938.579501 2.1956719.138267 3.2333344-1.126469 2.6561562-2.529472 5.2025187-4.166309 7.5646062-1.697837 2.450775-3.749475 4.6287906-6.104079 6.477425-2.358672 1.8486343-5.071144 3.339678-8.062184 4.4303094-3.001206 1.0942844-6.417213 1.6822187-10.152455 1.7388406-.1586.0107562-.319234.0142063-.479867.0142063zm2.507105-22.0492625c.451401 0 .628301-.0671751.632368-.0671751.101667-.0460687.2135-.124.329401-.2443469.235867-.2408968.483934-.566625.738101-.9775905 0 0 .394468-.6445562.420901-.6869719-.813335.0460687-1.60837.0813813-2.372905.1063436-.0488.3965564-.0488.7967657 0 1.2075283.0366.2869655.095567.4994499.1647.6587624.026434.0034501.056934.0034501.087434.0034501zm42.596389 20.7035281c-2.960539 0-5.534745-.4815907-7.643316-1.4307688-2.252938-1.0163531-4.107342-2.3620875-5.510345-4.0089937-1.423336-1.6714626-2.431871-3.5732688-2.986973-5.659147-.528667-1.9620811-.727934-3.8638873-.599834-5.6556969.069133-.9633843.500201-1.8557375 1.197636-2.4684312.642534-.566625 1.502636-1.1793187 2.629105-1.8804969l3.696608-2.26305c.803168-.4957968 1.60837-.9844906 2.405438-1.4697343l1.189503-.7224875c.713701-.4320719 1.323703-.821728 1.82797-1.1687655-.1708-.0848314-.343634-.1698658-.510367-.2583502-1.31557-.690625-2.505072-1.5336623-3.535975-2.5039468-1.396903-1.3173219-2.269204-3.0385063-2.525405-4.975828-.323301-2.4187095-.105733-4.781.638468-7.0156376.685235-2.0503626 1.679537-3.9629249 2.958506-5.6910095 1.207803-1.6326999 2.631139-3.148503 4.225276-4.5013405 1.502636-1.2749062 3.017473-2.4116063 4.503843-3.3820937 1.461969-.9560783 2.875139-1.7849094 4.196808-2.4647782l.827569-.4215187c.937368-.4710375 1.695803-.8322812 2.328171-1.1013875.010167-.0034501.022367-.0105532.032534-.0142062 2.696205-1.1226969 5.603878-1.8273251 8.637618-2.0929813.876368-.0779312 1.752737-.1168969 2.606739-.1168969 2.104504 0 4.156142.2372438 6.097979.7048312 2.864973.690625 5.408678 1.9371188 7.549783 3.6972688 2.407471 1.9797375 3.938575 4.5614125 4.546542 7.6815031.298901 1.5405625-.382267 3.1058844-1.671403 3.8494782l-12.69616 7.29895c-.278567.1629656-.573401.2764124-.872302.3435875l.020334.0071031c1.435536.5029 2.747039 1.25725 3.904008 2.2488437 1.132569.9739375 2.104504 2.1248438 2.881239 3.4176093.797068 1.317322 1.366403 2.765747 1.69987 4.2992064.349734 1.6079405.382268 3.2298843.105734 4.8165155-.465634 2.7907094-1.46197 5.5635595-2.964606 8.2444751-1.514837 2.705675-3.623408 5.163553-6.26268 7.3060531-2.588439 2.1000844-5.788912 3.8425781-9.507887 5.1777593-3.692541 1.324425-8.01745 2.0503626-12.852727 2.1638094-.197233.0071031-.382267.0105532-.567301.0105532zm7.505049-21.5958813c.044734.0034501.095567.0034501.140301.0034501.260267 0 .557134-.0424157.884501-.123797.374135-.0957905.746235-.2195875 1.106136-.3719999-.040667-.0176563-.083367-.0389656-.126067-.0566219-.984135-.4462781-2.104504-.8675938-3.330607-1.2501469l-3.751508-1.1756657-.0427-.0107561c.239934.4817936.465634.9067623.664902 1.264353.211467.371797.441234.6658656.689301.874697.174867.1487593.473768.2762094.843835.3683468.723868.1735188 1.70597.3364843 2.921906.4781406zm8.786052-19.0602749c.457501.2019311.925169.4073124 1.398936.6092436.892635.3789 1.756804.7364908 2.570139 1.0624219-.424968-.5384155-.955669-.9952468-1.61447-1.3989062-.378201-.2337937-.906869-.3506906-1.56567-.3506906-.111834 0-.2257.003653-.341601.0107562-.148433.0176563-.296867.0424157-.447334.0671751z" fill="#f3f000"/><path d="m60.0601719 40.6428704c.6963863-2.6840098 1.3176522-5.2050691 1.8678583-7.5662257l-30.9232077 1.4500968-2.9865432 14.9727518 13.1440383-.2409717c-.1482105.3758833-.4974188.8722524-1.0455946 1.4891074-.5502061.6168549-1.2953192 1.233913-2.2393998 1.850768-.9481412.6168549-2.0790076 1.1806798-3.3986902 1.6912716-1.3196825.5105917-2.7753939.8190192-4.3671341.9252824-2.1419463.1596996-3.9082906-.1062632-5.3030936-.8047966-1.3948029-.6983302-2.4627307-1.7302822-3.209874-3.0987005-.7471434-1.3686215-1.1836538-2.9924373-1.3054706-4.8716505-.1218169-1.8792133-.014212-3.9461649.3349963-6.1976042.3492083-2.2550965.9968679-4.5099899 1.9409485-6.7614291.9461109-2.2550965 2.139916-4.3326136 3.585476-6.2402721 1.4435297-1.9040012 3.0880572-3.503029 4.9295219-4.7899721 1.8414648-1.2871462 3.8352006-2.0671548 5.9771469-2.3329145 1.9409485-.26962 3.3966599.3474381 4.3671341 1.850768.9704743 1.50333 1.185684 3.7297781.6354779 6.683408l16.8046347-2.414593c.8953539-3.3293099 1.2689255-6.2260494 1.1227453-8.6936723-.1482105-2.4678262-.6842046-4.588011-1.6059522-6.3607579-.9217475-1.77274681-2.1155526-3.21938949-3.5854759-4.34683616-1.4699234-1.12764985-3.0758755-1.99969906-4.8178565-2.61675719-1.7440113-.61685494-3.5245676-.99273822-5.341669-1.12744666-1.8191316-.13470844-3.5245675-.12048583-5.1163077.03901059-4.5803136.5353797-8.8499943 1.94646586-12.8070117 4.22635035-3.9570174 2.27968131-7.4714335 5.15163277-10.5330971 8.61565117-3.0616635 3.4605644-5.6279385 7.3782841-7.69273415 11.7535655-2.06682592 4.3752814-3.47381055 8.9240786-4.22095391 13.6467981s-.59893285 9.0695557.44666179 13.0407117c1.04762492 3.9709529 2.7896059 7.3392735 5.22797321 10.1047586 2.43633706 2.765485 5.47566746 4.8041947 9.10987026 6.119583 3.636233 1.3153883 7.6460377 1.677049 12.0273838 1.0886392 3.7316562-.4823496 7.0186809-1.4502999 9.8570135-2.8967394 2.8383327-1.4500967 5.3152753-3.2051669 7.430828-5.2723218 2.1155526-2.0669517 3.9062603-4.3752814 5.378214-6.9243796 1.4699233-2.5493013 2.7124552-5.180078 3.7316562-7.8888758 1.0232615-2.7230204 1.8820703-5.4177987 2.580487-8.1016054zm20.6032901 8.5128421c-.1969372 1.0565368-.1339985 1.9040012.1847556 2.5385328.3187541.6347348.7857187 1.1239926 1.3968332 1.4679766.6131448.3437808 1.3257734.5565104 2.1358555.6345316.8080517.0780212 1.5815888.0390106 2.3185807-.1204858l.1502408-.3651147c.2334823-.5815016.4933582-1.3119343.7836884-2.191298l.0994838-.2978621c.3898139-1.2160332.7958701-2.418047 1.2120776-3.6092922l.3451478-.9927383c.2253612-.6453001.4283892-1.2550438.6192356-1.8330913l.6882653-2.1201849c.0162422-.0495759.0284239-.0956978.0426359-.1383657l.0263936-.0851324.0060908-.024788c-2.3551258-.5815016-4.4645876-.2765282-6.3283854.911263-1.8658281 1.1912452-3.0921177 3.2655114-3.6808992 6.2260494zm27.891998-15.2671599c-.265966 1.1770227-.605023 2.5314216-1.01514 4.0560854l-.444631 1.6343812c-.383724 1.3899554-.806022 2.8790627-1.262835 4.4638679-.440571 1.5283211-.897384 3.0598931-1.364349 4.6022337l-1.270956 4.1375606c-1.262834 4.1024104-2.641395 8.5272678-4.1336516 13.271118l-17.9558039 4.5205552c.3410872-.7942312.6598413-1.5848052.9562623-2.3790364.1969372-.5496023.4141773-1.1168813.657811-1.7018369l1.033413-2.4251583c-1.2262897.5815015-2.6251532 1.0317488-4.1945603 1.3472875-1.5694071.3155388-3.1631776.4750352-4.7813114.4750352-1.6201641 0-3.2017529-.198507-4.7467967-.595521-1.547074-.3972172-2.9175136-1.0177294-4.1214701-1.8649906-1.2019263-.8474644-2.1581886-1.9572344-2.8728474-3.3327641-.7105983-1.3757328-1.0638672-3.0422164-1.0638672-4.9957935.0487267-4.6552637 1.2262896-8.7788049 3.5326887-12.3740777 2.3043688-3.5950696 5.2726394-6.3713232 8.9027816-8.3283544 1.6688908-.9006977 3.3479331-1.599231 5.0432176-2.1027114 1.6932543-.5032773 3.3113881-.8330387 4.8584621-.9927383 1.5450437-.1594964 2.992634-.198507 4.3407405-.1204858s2.5398813.223295 3.5692337.4360246c.0487268-.5282684.1116655-1.0317488.1847556-1.506784.0710598-.4750352.0974535-.9252824.0710598-1.3472876-.0223331-.4220052-.1563316-.8047966-.4040259-1.1487806-.2456639-.343984-.6618715-.6737454-1.250653-.9927382-1.3237431-.6347348-2.978422-.8722524-4.966067-.712756-1.9856146.1596996-3.9103209.4752384-5.776149.9502736-2.2069153.5815016-4.4625573 1.2940544-6.7689564 2.1415188l6.180175-14.1183793c1.4252571-.5282684 2.9682706-.9502735 4.6351312-1.2692664 1.4232268-.2659628 3.0657241-.4220051 4.9295219-.4752383 1.8658281-.0530301 3.9021998.1312543 6.1091151.5567136 1.3257734.3155387 2.7956967.7552206 4.4138306 1.308277 1.6181342.5567136 3.1286632 1.453754 4.5254962 2.6982324 1.398863 1.2444784 2.562214 2.93575 3.498174 5.0772688.933929 2.1415188 1.396833 4.9317919 1.396833 8.3675683 0 .4927118-.127908 1.3224996-.383723 2.4818455zm65.328348-17.1321504-.235513-.0071113c-1.033413-.0071113-2.237369.2446289-3.609839.7623319-1.476014.5565104-3.004816 1.2337099-4.580314 2.0315983-1.575498.7976853-3.142875 1.6591692-4.694009 2.5881088-1.553165.9289397-2.921574 1.7658387-4.103198 2.5102908-.14821-.8509185-.345148-1.7408475-.590812-2.6697872-.247694-.9289397-.592842-1.7798581-1.037473-2.5493014-.442601-.76924-1.021231-1.4216515-1.73589-1.9499199-.714659-.5319256-1.638437-.8509185-2.773364-.9573849-1.723708-.1062632-3.449447.0390106-5.173156.4396819-1.723708.397014-3.303267.8614838-4.730554 1.3934095-1.672951.6381888-3.301237 1.3791868-4.876735 2.2301053l1.624225-5.6551132c-.592842-.0532332-1.624225.024788-3.104299.2375176l-.747144.1099205c-1.254713.1879416-2.556123.4041253-3.912351.6487542-1.624225.2907508-3.163177.6099468-4.616859.9573849l-.265966.0637986c-1.315622.319196-2.273915.6028355-2.874878.8509184-1.30344 3.4321192-2.474912 6.5310229-3.506295 9.299962l-1.780556 4.8007406c-1.404955 3.8256791-2.401823 6.9316941-2.992634 9.3212959-.119787.3829946-.259876.9004944-.424329 1.5565631l-.227392.9110598c-.131968.5319257-.276118 1.1028619-.43448 1.7054942l-.605023 2.3010153-.562388 2.1734181c-.318754 1.2481356-.65172 2.4820487-.996868 3.7051932-.473055 1.7514129-.964383 3.5810502-1.473984 5.4885055l-1.039504 3.9142656 15.446377-1.5138953c.353269-1.1770226.730901-2.4074816 1.132897-3.6909706l.493358-1.5671286.324845-.9537276c.079181-.2340635.160392-.4750352.247694-.7196641l1.555195-4.5207584c.65172-1.8684447 1.37247-3.8396985 2.160219-5.9174188.21724-.5638249.454783-1.1806798.72075-1.8473139l.499449-1.258701c.466965-1.1699114 1.01108-2.2585506 1.626255-3.2653083.615175-1.0106181 1.279077-1.8473139 1.995766-2.5102908.714659-.6629768 1.51662-.9679502 2.401822-.914717.542085.05303.887233.4644698 1.035444 1.2337099.14821.7694432.162422 1.7658387.036545 2.9889832-.121817 1.2231445-.367481 2.6023314-.741053 4.1412179-.367481 1.5386833-.775567 3.1058118-1.220199 4.7013855-1.08417 3.7724459-2.485064 8.0201302-4.212833 12.7463037 3.693081.5849557 6.947622.71621 9.7555.397014 2.809909-.3189928 5.124429-.7976852 6.947621-1.43242 1.183654-3.5064831 2.391671-6.931491 3.622021-10.2784776l.36342-.9998495c1.08214-2.981872 2.044493-5.8359436 2.88909-8.5626212.789779-1.5386833 1.575498-2.7335858 2.365277-3.5845043.78978-.8509184 1.847556-1.2231445 3.17739-1.1168813.542085.0532332.860839.5461483.960323 1.475088.097453.9289396.048726 2.1378615-.148211 3.6235148s-.515691 3.1874902-.960323 5.0983996c-.444631 1.9111125-.937989 3.8506702-1.478044 5.8148127-1.163351 4.2015624-2.633274 8.927736-4.40977 14.1821779l-.542085 1.5921197 16.70109-1.0354061c3.451478-8.9240787 5.987298-16.9407548 7.611523-24.0601873.692326-3.0279938 1.23035-5.9885318 1.626255-8.881614.393875-2.8932854.479146-5.4850514.259876-7.76839-.221301-2.2833385-.812112-4.1412178-1.774465-5.577092-.960323-1.4358741-2.416035-2.1770753-4.387437-2.2301053zm40.55486 13.2851374c0-.5567136-.113696-1.0352029-.332966-1.4324201-.221301-.397014-.605024-.6239662-1.145079-.6771994-2.759151-.3189928-4.878765.1204858-6.354779 1.3153883s-2.635304 2.7762536-3.47381 4.7403961c.592842.1596996 1.368409.2375176 2.328732.2375176s1.957191-.0140194 2.994664-.0390105c.828355-.0211308 1.614073-.049576 2.363247-.0885866l1.076049-.0601413c.661871-.0355565 1.191775-.0497792 1.585649-.0497792.247694-.691422.466965-1.3791868.663902-2.0706089.198968-.691422.294391-1.3188424.294391-1.875556zm-.487268 14.4020188-1.878009.1773762c-2.513488.2375176-4.964037.4502473-7.355708.6381889-2.391671.1842844-4.568132.2799823-6.541565.2799823-.296421.4786924-.556297 1.209125-.777597 2.1912979-.219271.9819697-.267998 1.9783651-.148211 2.98878.121817 1.0106181.444632 1.8863246.962353 2.6273226.515692.740998 1.366379 1.1168813 2.548003 1.1168813.741052 0 1.356227-.1064664 1.849586-.319196.493358-.2127296.94611-.5317225 1.368409-.9571817.416207-.4254593.824294-.9573849 1.220199-1.5919165l.347178-.5709362c.302511-.4998232.629387-1.0530828.980625-1.6593723l17.663444 1.9111125c-1.035443 2.4428349-2.302339 4.7546187-3.804747 6.931694-1.504438 2.1768722-3.303267 4.0879847-5.394456 5.7365885-2.093219 1.6488069-4.48489 2.960538-7.170952 3.9427108-2.684031.9821729-5.727422 1.4996727-9.128143 1.5529059-3.155056.0532332-5.751785-.4644698-7.798308-1.5529059-2.046523-1.088436-3.670748-2.5883119-4.878765-4.5028785-1.205987-1.9145666-2.044493-4.1164299-2.513488-6.6124981-.466965-2.4960681-.700447-5.0983995-.700447-7.8074005 0-4.5134439.741053-8.562418 2.217067-12.1505795 1.392773-3.3754319 3.240328-6.736438 5.548757-10.0870818l.438541-.6276235c1.674982-2.442835 3.83114-4.6729404 6.466445-6.6905193 2.635304-2.0173757 5.457395-3.5170484 8.464241-4.5026753 3.004815-.9858301 6.060388-1.3155915 9.162657-.9963955s5.987298 1.5671285 8.646966 3.7442038c1.429318 1.1699114 2.5277 2.8825169 3.289055 5.1374102.763386 2.2585506 1.23035 4.6731435 1.404955 7.2506869.174604 2.5775434.07309 5.0843802-.296421 7.5272151-.367481 2.442835-.994838 4.4604139-1.884101 6.0557845-2.068856 0-4.322468.1064664-6.762866.319196-1.825222.1560424-3.672778.3226501-5.544697.4998232zm52.174158-14.0119129 12.677074-7.3075774c-.440571-2.2762272-1.549105-4.1446719-3.315449-5.6018799-1.766344-1.4572081-3.859564-2.4747343-6.263417-3.0598931-2.407913-.5815016-4.974188-.7552207-7.700855-.5174999-2.726667.2375176-5.290912.8614839-7.698825 1.8684447-.566448.2446289-1.281107.5815016-2.137886 1.0140721l-.814142.4146907c-1.22629.6347348-2.5277 1.4041781-3.906261 2.3046725-1.37856.9004944-2.763212 1.9464659-4.164106 3.1379143-1.402924 1.1912452-2.629213 2.5031795-3.684959 3.9319423-1.055746 1.428966-1.867859 2.9924373-2.430247 4.6871629-.562387 1.6949289-.72481 3.4676757-.481176 5.3218978.14821 1.1134272.625326 2.0529322 1.437439 2.8187182.810082.7694433 1.744011 1.428966 2.799757 1.9856797 1.055746.5565104 2.148037 1.0067576 3.278904 1.3507416.753234.2304063 1.431348.4291165 2.03028.5991783l.842567.2340635 3.794595 1.1912452c1.352167.4220052 2.578457.8864751 3.68496 1.3899555 1.104473.5034804 2.001857 1.0209802 2.690122 1.5494518.688265.5282684.956262 1.1132241.810082 1.7479589-.148211.6345316-.491328 1.2196904-1.033413 1.7479588-.544115.5282684-1.15523.9679503-1.841465 1.3117311-.688265.343984-1.402924.6099468-2.139916.7942312-.734961.1844876-1.423227.2517402-2.060735.198507-1.37653-.1594964-2.493185-.3437808-3.351994-.5565104-.858808-.2127296-1.573467-.5567136-2.137885-1.0317488-.566449-.4752384-1.055746-1.0849821-1.473984-1.8259801-.334997-.5922701-.706538-1.3224996-1.122746-2.1876407l-.314693-.6737454c-.688265.5282684-1.622194 1.1524379-2.799757 1.8686479l-1.183654.7196641c-.79181.4821465-1.58971.9714043-2.391671 1.4643194l-3.670748 2.2548933c-.960323.5991783-1.687163 1.1168813-2.186612 1.5565631-.099484 1.3757329.062938 2.8471635.479146 4.4106348.418238 1.5636744 1.167412 2.9784178 2.247521 4.2511383 1.08214 1.2692664 2.52973 2.3152379 4.348862 3.1379143 1.819131.8224733 4.101167 1.2054678 6.854228 1.1522346 4.519405-.1062632 8.476422-.7694432 11.864961-1.9854764 3.386509-1.2160332 6.239053-2.7654851 8.547482-4.6481524 2.31046-1.8792132 4.11538-3.9853786 5.41882-6.3146359 1.30141-2.3294605 2.146007-4.6873661 2.541912-7.0698566.196937-1.1134272.170543-2.2374198-.07309-3.3754319-.245664-1.1382152-.663902-2.198206-1.252684-3.1769248-.588781-.9785157-1.315622-1.8399995-2.17443-2.5812007-.858809-.740998-1.829284-1.2975085-2.911423-1.6699377l-2.822091-1.10977c-1.004989-.397014-2.068856-.8366958-3.18348-1.311731-1.30344-.5567137-2.52973-1.1134273-3.682929-1.6699377-1.15523-.5567136-1.928767-1.0211835-2.322642-1.3899554-.540054-.4750352-.700447-.9679503-.481176-1.4714307.2213-.5034804.674053-.9679502 1.366379-1.3897522.686235-.4220052 1.498347-.7694433 2.430246-1.0317489.933929-.2659628 1.819132-.4502472 2.653577-.5567136 1.522711-.1064664 2.799757.1594964 3.83317.7942312 1.029353.6381889 1.890192 1.4039749 2.578457 2.3046725z" fill="#f00"/></g><g filter="url(#b)" transform="translate(61.197368 80)"><path d="m25.4189527 71c-2.9692329 0-5.8020355-.4818945-8.4251328-1.4321619-3.8224845-1.3863388-7.07732146-3.5787146-9.67024664-6.5215388-2.58973931-2.9396316-4.46303218-6.5512112-5.56215809-10.7295708-1.08694464-4.1391095-1.25092336-8.6910031-.48575182-13.5347377.740809-4.6829779 2.14952673-9.2545905 4.19298266-13.5871339 2.03708418-4.3192095 4.60564679-8.2453539 7.62978919-11.6698848 3.0451316-3.4476303 6.5821994-6.34463131 10.5141279-8.61569531 3.9924601-2.30392899 8.35242-3.7458565 12.9612527-4.28653237.0151797-.0033804.0303595-.0033804.0455392-.006573.8956049-.09183414 1.8337506-.13765731 2.7902619-.13765731.7863482 0 1.6060544.02948458 2.4379418.09164634 1.9250165.14103771 3.8376642.54743666 5.6835961 1.20285826 1.8976554.67176019 3.670687 1.638554 5.2739303 2.86751644 1.7214955 1.32398919 3.1362101 3.03785093 4.2049766 5.09594987 1.0717649 2.06467198 1.7003187 4.51602378 1.8672959 7.28513308.1607928 2.657744-.2276962 5.7513715-1.1508495 9.1892362-.3339544 1.2484936-1.3206377 2.1628913-2.5138406 2.3332258l-15.5571763 2.2383868c-.1336192.019719-.2672384.0294846-.4008577.0294846-.8257031 0-1.6242326-.3637684-2.2010629-1.01919-.6710946-.7602139-.9625082-1.8220345-.7833497-2.8543704.2033336-1.1863319.3279574-2.3005486.3673123-3.3133534.0365438-.9502674-.0667159-1.5074697-.1577944-1.8088885-.0091828-.026292-.0151797-.0492036-.0243625-.0721152 0 0-.0818957.013146-.1000739.013146-1.4210864.1769075-2.6598285.7341098-3.786128 1.7009036-1.3238236 1.1337479-2.486667 2.4872217-3.464355 4.0243637-1.035221 1.631981-1.9188321 3.3557962-2.6200988 5.1154811-.7226307 1.8090763-1.2539218 3.4018071-1.5848777 4.7355619-.4553923 1.8385608-.7499918 3.6671683-.8744282 5.44676-.1092567 1.5730119 0 2.9493972.324959 4.0930985.2550571.8946787.6435462 1.5337617 1.2235623 2.0154684.3764951.3113722 1.0444039.4751337 1.9278275.4751337.1943382 0 .4008577-.006573.6103756-.0229116 1.1414793-.0786882 2.1191673-.3047992 2.9206953-.6751406.8380718-.3866799 1.563701-.8618137 2.1527126-1.4124429.5890115-.5472489 1.0837587-1.1698055 1.4694367-1.8483265.4280313-.7504483.7711685-1.5401468 1.0200413-2.3397987.4160374-1.3437082 1.5788808-2.2415795 2.8783418-2.2415795.0515362 0 .1032598 0 .1579818.0031926l17.4941866.9701742c.2702369.0163386.537288.0687348.7893467.1571885.0577205-1.2484936.1881539-2.516894.3976718-3.8048256.6073772-3.7687681 1.7125001-7.3735869 3.2851965-10.7130444 1.5848777-3.3689422 3.6129665-6.3675429 6.0267332-8.9171142 2.4441262-2.5824362 5.301104-4.6437277 8.4920361-6.1282858 3.2031135-1.4911311 6.7130076-2.3005486 10.4322323-2.41210173h.0363565c.1276223-.0031926.2520587-.0031926.3794936-.0031926 3.2578354 0 6.2879747.73730233 9.0053363 2.18918323 2.8174355 1.5040893 5.1886618 3.6311108 7.0497728 6.3215319 1.827754 2.6414054 3.133961 5.7547519 3.877956 9.2515858.07871.3767265.151798.7570213.215515 1.1403209.187404-.4422688.384179-.8815327.58845-1.3140358 1.566699-3.3263116 3.570051-6.2922352 5.953833-8.8123218 2.417514-2.5529516 5.239822-4.5913316 8.39571-6.0561707 3.165258-1.4715999 6.632236-2.2744444 10.309108-2.3858097h.03748c.123687-.0033804.249248-.0033804.372935-.0033804 3.221479 0 6.218073.7275367 8.909198 2.163079 2.782953 1.4877507 5.129254 3.5916728 6.973312 6.2527972 1.808451 2.6119208 3.095918 5.6892097 3.830543 9.1466056.51911 2.4382059.699018 5.0009231.53785 7.6520941l10.241642-31.21177745c.402919-1.22558204 1.439265-2.08101052 2.644274-2.17603726l16.971329-1.32398919c.073088-.00657299.146175-.00976559.219263-.00976559.935147 0 1.825317.46536811 2.400648 1.27159302.624056.86838666.80209 2.01546836.474133 3.05418952l-17.994556 57.38657415c-.367312 1.1765663-1.3212 2.025234-2.458744 2.1957563l-18.27004 2.7232861c-.138679.019719-.275484.0294846-.416037.0294846-.903289 0-1.772844-.4358836-2.351924-1.2060509-.670907-.8881056-.862059-2.0873957-.507865-3.1657426l3.450112-10.5130376c-1.345562 2.1202607-2.872907 4.0538483-4.57079 5.7710905-2.48498 2.5200866-5.305414 4.548701-8.382592 6.0298787-3.148391 1.517423-6.418595 2.2875904-9.715036 2.290783-.118064.0033804-.234255.0033804-.35232.0033804-3.275826 0-6.302405-.7440632-8.995404-2.2120949-2.771709-1.5108501-5.106765-3.6050066-6.943327-6.226693-1.814073-2.5922018-3.107163-5.6597251-3.844598-9.123694-.087893-.4127841-.166977-.8291364-.233693-1.2484936-.273236.612791-.561651 1.2190091-.868432 1.8154615-1.727492 3.3723225-3.8710218 6.3675429-6.3696827 8.9007755-2.5170264 2.5497591-5.3710057 4.601285-8.4830407 6.1021817-3.1849352 1.5337616-6.4913083 2.3136946-9.828041 2.3168872-.1184395.0033804-.2366915.0033804-.355131.0033804-3.3125575 0-6.3728689-.7538288-9.0994133-2.2383869-2.8022557-1.5271886-5.1644863-3.6474493-7.0194135-6.2986203-1.7095016-2.4415863-2.9634234-5.3059101-3.7284076-8.5206686-.8592484 2.2611106-1.9310133 4.3389286-3.2001149 6.206974-1.9613729 2.883855-4.2870596 5.3678841-6.9163412 7.3767795-2.5929252 1.9827912-5.4954422 3.5918606-8.6286538 4.7847655-3.0756785 1.1699932-6.2817904 1.9760303-9.5274446 2.4021483-1.3511846.1932461-2.7113647.2884606-4.023007.2884606zm52.9473223-23.4843756c.297598 0 .6557275-.1310843 1.065768-.3932529.7376231-.4685607 1.4724351-1.1568473 2.1828847-2.0415726.762173-.9470748 1.4574428-2.0778179 2.0616341-3.3623691.5980069-1.2684004 1.0382195-2.6087282 1.305458-3.9785406.2216992-1.1568473.4645751-2.5266596.713448-4.0636139.2157023-1.3305622.2945994-2.6053478.2368789-3.7819141-.0395423-.8422824-.2095179-1.5303812-.4979331-2.0483333-.0577205-.0229116-.1943382-.0655422-.4553923-.0785004-.3401387.0163386-.7438074.2129651-1.2083826.5864991-.7741669.625937-1.5333415 1.4911311-2.2559723 2.5726706-.7711685 1.1502743-1.4450742 2.4579249-2.0037262 3.8801334-.5496567 1.4026774-.9291503 2.7888283-1.1203026 4.1227709-.0061844.0458232-.0151798.0916463-.0213641.1374695-.1729741.9241632-.3369529 2.0417604-.4887503 3.3199264-.1336192 1.1239823-.1639787 2.2120948-.08808 3.2344774.054722.7438753.2003351 1.3763853.4342156 1.884384.0211767.006573.0455393.0097656.0758988.0163386.0211766-.006573.0425407-.006573.0637174-.006573zm45.913291-.1605689c.284855 0 .631553-.1277039 1.02885-.3832995.725254-.4621756 1.444886-1.1373161 2.145778-2.0057028.749617-.9339288 1.433643-2.0481456 2.027714-3.309973.590324-1.2484936 1.021353-2.5659098 1.287467-3.916191.219263-1.1371283.455393-2.490602.702766-4.0080251.211767-1.3108432.290477-2.5627172.232382-3.7227571-.039355-.8159905-.200523-1.4845581-.476007-1.9893642-.05997-.0229116-.187404-.0589692-.42166-.0721152-.326083.0165264-.719632.2065799-1.169402.5703483-.758987.6159836-1.50673 1.4682195-2.218867 2.5298522-.758987 1.1339357-1.424272 2.4186747-1.973366 3.8213521-.543473 1.3795779-.914533 2.7461977-1.101937 4.0570409-.007496.0458232-.014993.0918341-.022489.1376573-.168664.9143976-.329831 2.0154684-.481629 3.2739154-.134931 1.1044511-.161167 2.1760373-.08808 3.1820812.054348.7209638.193027 1.3337548.416038 1.8254149.014992.0031926.031858.006573.054347.0097656zm134.059629 22.9303659c-.901414 0-1.772844-.4358835-2.355671-1.212436-.719632-.9570282-.8808-2.2678714-.419786-3.3918537-1.049463.1310843-2.110171.1966264-3.172753.1966264-1.750356 0-3.487593-.2197258-5.162987-.6490364-1.785963-.4587951-3.412632-1.19929-4.831282-2.1989488-1.538589-1.0847321-2.781079-2.5266597-3.688116-4.283152-.6353-1.2289624-1.055086-2.6153012-1.25186-4.1424898-.922029 2.7200935-1.945256 5.5385942-3.065933 8.4387878-.446023 1.1568473-1.467376 1.9401606-2.629282 2.0122758l-15.526442.9634134c-.058095.0031926-.116191.006573-.17616.006573-.957636 0-1.864672-.4882797-2.438129-1.3239892-.610938-.8881057-.766484-2.044953-.414164-3.0804815l.504118-1.4813655c1.619172-4.7977237 2.979727-9.1792828 4.042309-13.0104004.489125-1.772831.937022-3.5458497 1.338067-5.2696648.17616-.7667869.333579-1.4943237.464762-2.1792299-.71401 2.2481525-1.514226 4.6042898-2.389404 7.0195841l-.34295.9373092c-1.131921 3.0804816-2.256347 6.2693236-3.337669 9.484082-.318588.9504552-1.025102 1.684565-1.915272 1.9991298-1.915271.6685676-4.229714 1.1536547-7.076384 1.4779851-1.023227.1147457-2.110172.1737149-3.236472.1737149-2.016469 0-4.235336-.1900535-6.592881-.5635875-.916407-.1442303-1.720371-.7341097-2.185134-1.5993038-.464762-.8651941-.53785-1.910676-.196774-2.8414122 1.566699-4.302871 2.859789-8.219062 3.839913-11.6372077.363564-1.3108432.710262-2.6414054 1.026975-3.9391026-.039355.0918342-.076835.1834805-.112442.2753147l-.462889 1.1634202c-.236129.5996451-.455392 1.1600399-.648418 1.6746116-.717759 1.890957-1.38117 3.7129915-1.977115 5.4170877l-1.439265 4.1915056c-.178034.5211447-.348572 1.025763-.513488 1.5074697l-.447896 1.4255889c-.365438 1.1602277-.71401 2.3005486-1.036345 3.3852807-.372935 1.2486815-1.401784 2.1399797-2.61429 2.2581058l-14.357039 1.4090626c-.091828.0099534-.18553.013146-.277358.013146-.897667 0-1.757852-.4325032-2.336931-1.1863319-.637175-.8323291-.856438-1.9531188-.580953-2.9920278l.96888-3.6442567c.474132-1.7794039.933273-3.4868805 1.371799-5.1188615.003748-.013146.007496-.026292.013118-.039438.312965-1.1042633.61656-2.238199.905162-3.3689421l.524732-2.0318069.564087-2.1531257c.140553-.5406759.27361-1.0552476.391675-1.5401469l.209893-.8456629c.161167-.6388952.297973-1.1371283.419785-1.5369542.530354-2.1300263 1.386792-4.8403542 2.543076-8.0519201l.322335-.884913c1.308082-3.5655686 2.962861-7.9929509 4.928732-13.1709693.314839-.8357095.937021-1.4911311 1.718497-1.8154615.712136-.2950336 1.694134-.5932599 3.09217-.9307363l.25487-.0623495c1.403658-.3342838 2.901018-.6422756 4.458347-.9241632 1.278097-.2293037 2.528083-.4358836 3.716226-.6159837l.700892-.1049801c1.25186-.1802879 2.203874-.2687416 2.914136-.2687416.228633 0 .438526.0099534.631552.0262919.918281.0818808 1.750356.6095985 2.265718 1.432162.297973.4751337.466636 1.0158095.509739 1.5730118 1.175025-.3966334 2.432507-.7472557 3.75933-1.052055 1.469249-.3406689 2.959113-.5111912 4.43211-.5111912.395423 0 .79272.013146 1.188143.0360575.029985.0031926.059969.0031926.089954.006573 1.579818.1474229 2.936625.639083 4.038562 1.4582661 1.008234.7504484 1.840309 1.6877576 2.471862 2.7856357.303594.5277177.569709 1.0847322.798342 1.6680386.153671-.0950267.312965-.1866731.470384-.2816998 1.49736-.8980591 3.026579-1.7435342 4.548301-2.5137015 1.551708-.7865059 3.080926-1.4648391 4.544554-2.0154683 1.59481-.6030255 3.002216-.8946787 4.308423-.8946787h.131183l.217389.006573c3.510082.0950267 5.457212 1.9204416 6.471069 3.4344843 1.201261 1.7991229 1.945256 4.0767599 2.207622 6.7673688.230507 2.3858098.144301 5.0959499-.256744 8.0487275-.260492 1.9138686-.590323 3.8769408-.985746 5.8629246 2.018343-2.7495781 4.463969-5.0074961 7.299395-6.7444573-.27361-.1703345-.526606-.3900603-.743995-.6554216-.81146-.9799398-1.002612-2.3923827-.479755-3.5819072l5.811406-13.292288c.348572-.7996519.983872-1.4124429 1.754104-1.7009036 1.482368-.5504414 3.103414-.9960905 4.821911-1.3239891 1.48799-.27512687 3.191495-.44226877 5.082403-.49804533.221137-.006573.442274-.0097656.670908-.0097656 1.757852 0 3.671249.19662648 5.683971.57992603.041228.006573.084331.0165264.127434.026292 1.326822.3179452 2.811064.7570213 4.411496 1.3076506 1.885287.6488486 3.658131 1.7007158 5.264186 3.1328777 1.658527 1.4747925 3.039697 3.4673492 4.104153 5.9153207.601567 1.3829584 1.032597 2.9396316 1.294963 4.6995044l1.709127-5.9840556c.357942-1.2520618 1.371799-2.156506 2.580556-2.2941634l.59782-.0687347c.847067-.0884538 1.982737-.1802879 3.407009-.2785072l3.877394-.2721221c.159294-.4587951.314839-.9012516.461015-1.3271818l.586575-1.7206225 1.568573-4.67640494.404794-1.17656628c.153671-.44564912.299846-.86519407.442274-1.26163962.337327-.94388222 1.05696-1.66484598 1.949004-1.9598796 1.203135-.39644555 2.681755-.74387534 4.514568-1.07158614 1.716623-.30479921 3.510082-.58649904 5.341021-.83890209 1.547959-.21296506 3.060312-.41297194 4.493954-.58987943l1.345563-.1671419c1.253734-.1605689 2.284457-.3245182 3.056563-.4817067.187404-.03943798.378556-.05896917.567835-.05896917.886422 0 1.742859.41935714 2.325686 1.16980548.706514.90782465.905163 2.15969868.513488 3.2673424l-.43103 1.23234284c-.136805.39325296-.27361.78312552-.404793 1.16661288l-.530354 1.54671985c-.238003.68509402-.489125 1.39291172-.753365 2.13678712l-.470385 1.2976972c-.170537.4653681-.342949.9341166-.524731 1.4223963l-.356069.9438822 1.041968-.1049801c.837697-.0852612 1.636039-.1539959 2.376286-.2063921l.43103-.026292c.895792-.0523961 1.67352-.0818807 2.329435-.0818807.852689 0 1.666023.3866799 2.241354 1.0683935.472259.5603949.749617 1.2747856.788972 2.0220414.17616-.5603949.354194-1.1175971.534102-1.677992.69527-2.1728447 1.40928-4.3357359 2.121416-6.42331944.719633-2.10711471 1.418651-4.04727532 2.074565-5.76451746.337328-.88153266 1.010109-1.55986585 1.845932-1.86147246.562213-.20301168 1.30246-.39325296 2.340679-.59645243l.699018-.13427692c.749617-.13765732 1.557329-.27531463 2.419389-.40959155 1.169403-.18028789 2.410019-.33766419 3.697486-.46536811l1.467375-.14423032c.487251-.04582317.961384-.09183414 1.422398-.13108431l.687774-.06234957c1.010109-.08845374 1.939634-.1605689 2.771709-.20958467l.348572-.01971899c.509739-.02948458.940769-.04263057 1.323074-.04263057.444148 0 .817082.01971899 1.135669.05577657.923903.11136533 1.746608.66856759 2.237607 1.52061566.492873.84866768.59782 1.89414964.286729 2.83803186l-4.546427 13.77380691c1.197513-.2719342 2.531831-.5046183 3.974844-.6914791 1.146914-.147423 2.316316-.2227307 3.4726-.2227307.772106 0 1.555456.0326772 2.329435.0982193.013119 0 .024363.0033804.037481.0033804 3.315181.3243304 5.843265 1.5335739 7.516785 3.5916728 1.577943 1.9401606 2.498098 4.4241897 2.741724 7.3769673.209892 2.5890092-.029985 5.5352138-.723381 8.7565452-.640922 2.9954082-1.489864 6.1808698-2.528083 9.4677434-1.021353 3.2280922-2.158897 6.587081-3.386395 9.9855077-1.205009 3.3394575-2.342553 6.5936539-3.388269 9.6743232-.337327.9962784-1.098189 1.7564924-2.046454 2.0349996-2.048328.6095984-4.574538 1.0225704-7.721055 1.2618274-.775854.0589692-1.592936.0884538-2.425011.0884538-2.53558 0-5.380376-.2785073-8.450058-.8323291-.916406-.1639493-1.714748-.7767404-2.160771-1.658273-.446022-.8815327-.494747-1.9367802-.131183-2.8609435 2.243229-5.6826367 4.119146-10.8967127 5.575277-15.4978098l.196774-.6291297c.627805-1.9859837 1.216254-3.9719675 1.757852-5.9121281.51911-1.8646651.910785-3.5426571 1.165655-4.9877772 0-.0099534.003748-.019719.005622-.0294845-.378557.5046182-.729003 1.0682057-1.034472 1.6778041-.406667.8094175-.753365 1.5927308-1.036345 2.3300332-.803964 2.0712449-1.542337 4.1785474-2.207622 6.2790891l-.363565 1.1634203c-.464762 1.4943237-.89017 2.9133396-1.259356 4.2046516l-.140553.4850871c-.584702 2.0481456-1.13567 4.0636139-1.626669 6.0037746-.346698 1.3534737-1.452383 2.3200797-2.747346 2.4021483l-16.328533 1.0421015c-.061843.0031926-.118064.006573-.179908.006573-.907036 0-1.772844-.4392639-2.351923-1.2060508-.61656-.8159905-.832075-1.9007227-.582827-2.91672l.447896-1.8154615c.670907-2.6938016 1.336192-5.2796182 1.980863-7.6915321l.633426-2.4676905.318587-1.251874c.213641-.8357095.416038-1.638554.60719-2.4121017l.582827-2.3397988c.101199-.3998259.198649-.7735477.288603-1.1307431l.297973-1.1337479c.18553-.7145786.277358-1.1241701.322335-1.3371352.014992-.0689225.029985-.1376573.048725-.2065799l.442274-1.6385539s.640923-2.3168872.646545-2.3431792c-.494747.612791-1.191891 1.01919-1.965871 1.1076437l-9.737525 1.1273627-.00937.026292c-.779601 2.3792367-1.527344 4.5913316-2.218866 6.580508-.743995 2.136787-1.296837 4.2209902-1.639787 6.200401l-.076836.4556025c.228633.0852611.479755.1310843.684026.1539959.309217.0360576.637174.0523961.97825.0523961.569709 0 1.190017-.0523961 1.838435-.1506155 1.218128-.1868608 2.335057-.3998259 3.31893-.63251.215515-.0492035.431029-.0754955.64467-.0754955.873304 0 1.714749.4063989 2.301324 1.1373161.725255.9110172.9314 2.1760372.535977 3.3000195l-4.780683 13.6134259c-.356068 1.0092366-1.148788 1.7662579-2.12329 2.0220413-1.778466.4685608-3.667501.8749597-5.607135 1.2124361-2.0071.3474298-4.023569.5374833-5.987566.5637753-.151797.0031926-.307343.0031926-.45914.0031926-1.832814 0-3.609406-.153996-5.2848-.4587952-2.037084-.3703413-3.86615-1.1110241-5.432849-2.1923758-1.65478-1.1437013-2.977854-2.690609-3.937363-4.594712-.920155-1.8252271-1.38117-4.0570409-1.377422-6.6329041 0-.0097656.001874-.373534.001874-.373534.003748-1.5534806.26424-3.3296919.805839-5.4204681.472258-1.8451338 1.040093-3.808206 1.681016-5.8300596.470384-1.4845581.963258-2.9888351 1.463627-4.4733932 0 0 .552842-1.6222154.579079-1.6975232l-4.411496.6388952c-.133057.019719-.269862.0296724-.402919.0296724-.61656 0-1.218128-.2031995-1.722245-.5769213l-.193026.7143908c-.365439 1.3239892-.768358 2.7529585-1.199388 4.2504748-.419785 1.4518809-.856437 2.923293-1.296837 4.3783665l-1.195639 3.9032328c-1.188143 3.863607-2.499973 8.0748317-3.896134 12.5187403-.337328 1.0715862-1.161907 1.8810037-2.18326 2.1365993l-16.881375 4.2570478c-.239877.0721152-.472258.1015997-.700892.1015997zm2.524336-22.5500711c.172412.0884537.387926.1506155.639048.1900535.037481-.1049802.198649-.5998329.198649-.5998329.245499-.7635943.504117-1.5467198.768357-2.3202675l.402919-1.1698055c-.963258.6454682-1.609802 1.844946-1.977115 3.6671683-.014992.0950268-.026236.1735271-.031858.2326841z" fill="#f3f000"/><path d="m364.251661 20.2437856c2.518095.247402 4.351986 1.0711423 5.496065 2.4743927 1.144079 1.4032505 1.811458 3.2264872 1.992791 5.4665384s-.03365 4.8025085-.654294 7.683827c-.616905 2.8815052-1.431968 5.9092871-2.441449 9.0870776-1.007612 3.1776038-2.119911 6.4401005-3.331289 9.7902886-1.211377 3.3503747-2.346109 6.5735035-3.400456 9.6764763-1.832022.5403288-4.204303.9244922-7.111236 1.1459599-2.908802.2214676-6.288695-.0130605-10.13781-.7032112 2.278811-5.7465914 4.159437-10.9526673 5.643749-15.6215863l.198157-.6315653c.643077-2.0187701 1.23568-4.0145911 1.787156-5.9842913.551476-1.9698867.964616-3.7311797 1.23568-5.2808936.276673-1.5530723.37949-2.8195613.310322-3.8061839-.071038-.986436-.37949-1.5010171-.927227-1.5530723-.917881-.0975801-1.74229.0847062-2.475099.5535759-.732809.4688696-1.396449 1.0711422-1.992791 1.8101762-.596342.7390341-1.123515 1.5627744-1.581521 2.4743927-.456136.911805-.846843 1.784242-1.168381 2.6242146-.82441 2.1163502-1.581521 4.2586347-2.267594 6.4270401l-.366405 1.1623787c-.476699 1.5237796-.902925 2.9432623-1.282415 4.2586347l-.138336.4884602c-.596342 2.0674669-1.145949 4.0892222-1.650689 6.059109l-16.288169 1.0353193.448658-1.803646c.669249-2.6730979 1.319804-5.1997324 1.955403-7.5763584l.643077-2.4777511.321538-1.2502568c.214983-.8368007.416879-1.6409503.611298-2.4126355l.581386-2.3279292c.097209-.380805.19068-.7455643.280412-1.0907329l.295366-1.119839c.166378-.641454.287889-1.1461465.362666-1.5075474l.44305-1.6278899.616905-2.233521c.312192-1.1069651.669249-2.3409897 1.073042-3.6987152l.136467-.4558092c.486046-1.6409503 1.022567-3.3893694 1.602084-5.2450706l.216851-.7000394c.663641-2.1163502 1.338498-4.2489326 2.026441-6.3912171s1.387102-4.2489327 2.095608-6.3163995c.708507-2.0674669 1.387103-3.93958697 2.026441-5.61300185.41127-.14646345 1.054347-.30934573 1.923623-.47857165l.674857-.1302312c.699159-.13023119 1.471225-.25729057 2.314329-.38752176 1.123516-.17258432 2.301244-.31904777 3.540663-.44274875l1.45627-.14329163c.47483-.04552494.944052-.08787807 1.402057-.13023119l.682335-.0617572c.98144-.08470625 1.876888-.15318025 2.682603-.20187701l.338364-.01959065c.893578-.04888335 1.547871-.04888335 1.961011 0l-6.460681 19.50240129c1.465617-.4916321 2.97797-.9343809 4.537058-1.3282463 1.32915-.3451686 2.852719-.6283935 4.570707-.8498611 1.719857-.2278113 3.4528-.2636342 5.191352-.1171708zm-325.806376 23.3052268c-.3209776 1.0386777-.760289 2.0381742-1.311391 3.0020343-.551289.9636735-1.2418491 1.8297669-2.0685022 2.5949218-.82684.7649684-1.8051022 1.4097807-2.9317956 1.9273471-1.1266934.5177529-2.4259333.8270987-3.8979067.9278506-1.9776488.1498218-3.5070131-.2212811-4.5852887-1.1134954-1.0812668-.8886693-1.8383778-2.0999313-2.2775022-3.633413-.4361333-1.5334816-.5875555-3.2884309-.4482845-5.2646613.139271-1.976417.4604357-3.9787683.9661111-6.0070538.3664043-1.4814265.9419956-3.2005529 1.723409-5.1540208.7812264-1.9534679 1.7475244-3.8321182 2.8983332-5.6359509 1.1508088-1.8036461 2.5046355-3.3729506 4.0704532-4.7079136 1.5628268-1.3347765 3.3344666-2.1260523 5.3123023-2.3734542l.1817067-.0261209c.8328221-.1041103 1.4990798.0423531 1.992791.4330467.5299777.4199863.9206844 1.0386777 1.17212 1.8525294.2544267.8172101.3574312 1.8038327.3088266 2.9662114-.0454267 1.1621921-.1846978 2.4092771-.4148221 3.7442401l15.5187198-2.2238189c.82684-3.0637915 1.17212-5.733531 1.0358401-8.0094051-.139458-2.2725157-.6329823-4.2259836-1.4841246-5.8572319-.8509554-1.63124833-1.9535334-2.96602479-3.3103512-4.00470253-1.3568177-1.03867774-2.8407553-1.84282738-4.4490087-2.4092771-1.6082534-.56980812-3.2527733-.91497676-4.9305688-1.03867774-1.6779824-.12370097-3.2527733-.11064054-4.7247467.03582291-4.2310356.49499049-8.174182 1.79077222-11.8298132 3.89406198-3.6556311 2.09993137-6.8962533 4.74690838-9.7248575 7.93440088-2.8287911 3.1874924-5.1971466 6.7983295-7.10525335 10.8257945-1.90810674 4.027465-3.20734666 8.2176257-3.8979067 12.5674969s-.55110206 8.3543871.41500901 12.0107492c.96611106 3.6595339 2.57436445 6.7591482 4.82756427 9.3051868 2.25338677 2.5460385 5.05787557 4.4246888 8.41365337 5.6359508 3.3555909 1.2110755 7.0596398 1.5431837 11.1059776.9994964 3.0346132-.3938654 5.9905242-1.1362578 8.861751-2.2238189 2.8742178-1.0873745 5.4940089-2.5329781 7.8623644-4.3366241 2.3683555-1.8038327 4.4368576-4.0047026 6.2086843-6.5996244 1.7718268-2.5949219 3.092191-5.6228904 3.9674488-9.0839057zm50.2783417-14.2931535c-.069729-1.4226545-.3936978-2.6305582-.9752712-3.6302412-.5813865-.996138-1.5658178-1.5204212-2.9589021-1.5724763-1.0206978 0-2.0412087.4102842-3.0619066 1.2338379-1.0206978.8237403-1.9838178 1.907943-2.88936 3.2559664-.9055422 1.3478369-1.6809734 2.8423239-2.3320889 4.4898044-.6511155 1.6474806-1.0902399 3.2688403-1.3235423 4.8642658-.1846977.996138-.3604222 2.1684053-.5208176 3.5162422-.1635734 1.3478369-.1968489 2.6438052-.1030045 3.8907036.0938444 1.247085.3725734 2.3312877.8358132 3.2557799.4634267.921507 1.2540002 1.458664 2.3653644 1.6084858.9752712.1009385 1.9716667-.1757561 2.9923646-.8237403 1.0206978-.6479841 1.995969-1.546542 2.9226355-2.6925019.9268534-1.1461465 1.7505155-2.4811095 2.4713599-4.0047025.7178535-1.5206078 1.2416621-3.1061446 1.5658178-4.7502668.2331154-1.1982017.4755779-2.5818615.7298177-4.1545244.2576047-1.5661327.351449-3.0637915.2817201-4.4866326zm5.1849954 26.3040893c-2.2745111 2.2952781-4.8154131 4.115343-7.6230799 5.4631799-2.8074799 1.3480235-5.6725376 2.0219419-8.5951731 2.0219419-2.9710533.0488834-5.6484222-.5729799-8.0380889-1.87212-2.3894798-1.2991402-4.3732977-3.0669633-5.9512666-5.3135447-1.577782-2.243223-2.6923243-4.8902-3.3404487-7.931229-.6513024-3.0442009-.6967291-6.2869203-.139458-9.7283449.5572711-3.4416112 1.5536666-6.6843306 2.9923645-9.7285315 1.438511-3.0442008 3.2497823-5.7107685 5.4302621-8.0060466 2.1806667-2.2954648 4.6974533-4.1024692 7.5535379-5.4243718 2.8529065-1.3219026 5.9512666-2.031644 9.2917152-2.1325825 2.9226355-.0486968 5.5788801.5601061 7.9683599 1.8331254 2.3896668 1.2730192 4.3734846 3.0442008 5.9512666 5.3135446 1.5779689 2.2693439 2.6925109 4.926023 3.3406359 7.9702238.648124 3.0442008.696542 6.2871068.139271 9.7285314-.557271 3.4414247-1.623209 6.6972045-3.2011778 9.7641678-1.577969 3.0637915-3.504209 5.7465914-5.7787201 8.0420562zm37.9342539-12.9680791c-.708506 1.5010171-1.523569 2.8195613-2.437711 3.9526474-.916011 1.1328994-1.878757 2.0185835-2.886369 2.6600374-1.009481.6412674-1.992791.9116184-2.953667.8138517-1.099213-.1464635-1.876888-.6770903-2.334893-1.5888952-.458006-.9116184-.732809-1.9827606-.82441-3.2134268-.089732-1.2306661-.057952-2.5102156.102817-3.8418202.16077-1.3317912.332755-2.4874531.515957-3.4707173.229938-1.5758348.663641-3.1746186 1.304849-4.7991501.641207-1.6247182 1.407665-3.1027862 2.301243-4.4312191.893578-1.3284328 1.845108-2.399575 2.85085-3.2136133 1.007612-.8138517 2.013355-1.2176057 3.022836-1.2176057 1.374017.0488834 2.34611.5664497 2.918149 1.5497139.573909.9832642.893578 2.178294.964616 3.5815445.069168 1.4032504-.024302 2.8813185-.276673 4.431219-.250501 1.5497139-.493524 2.9171414-.719723 4.0991108-.325277 1.6213597-.839365 3.184134-1.547871 4.688323zm16.383509-14.4396169c-.641208-3.0018477-1.740421-5.6260623-3.297639-7.8661135-1.557219-2.2400511-3.516361-3.9884702-5.871817-5.2452572-2.359195-1.256787-4.981978-1.8590597-7.866477-1.8101763-3.297639.0975801-6.354125.8009778-9.169456 2.1032897-2.817201 1.302312-5.299777 3.0897258-7.453338 5.3558979-2.15356 2.2659854-3.940716 4.899902-5.357728 7.9019363-1.420752 3.0018477-2.405931 6.202214-2.953668 9.6014721-.547737 3.3990715-.502871 6.596266.136467 9.601472.641207 3.0018477 1.74229 5.6130019 3.297639 7.8302906 1.557218 2.2171021 3.51636 3.9623494 5.873686 5.2450707 2.359195 1.2795494 5.002541 1.8948825 7.933776 1.8461857 2.886369 0 5.714786-.6642164 8.483382-1.9926492s5.279214-3.1255487 7.524375-5.3917207c2.243292-2.2659855 4.144482-4.9097907 5.701701-7.9409311 1.557218-3.0279685 2.611565-6.2413953 3.159303-9.637295.547737-3.3958996.499132-6.5996243-.140206-9.601472zm16.559233-23.04812283-19.241837 58.40010823 18.223009-2.705749 17.951944-57.01309001zm69.285941 11.13812553-.218721-.0063436c-.957137-.0098886-2.071306.2278113-3.346243.7063829-1.372147.5143946-2.787291 1.1427881-4.249169 1.8786503-1.463748.7358622-2.91441 1.5334817-4.351987 2.3930449-1.439445.8595632-2.708775 1.6344201-3.804249 2.321399-.136467-.784559-.321538-1.6082993-.547737-2.4678625-.228068-.8595632-.549607-1.6443088-.960877-2.3572219-.41127-.7130998-.947791-1.3153724-1.611431-1.8038327-.663641-.4916321-1.51983-.784559-2.570439-.8854975-1.600215-.0977667-3.19856.0358229-4.798775.403754-1.598346.3679312-3.060224.7976195-4.383766 1.2892516-1.55535.5893987-3.062094 1.2763776-4.522103 2.064295l1.508614-5.2321968c-.549607-.0488834-1.508614.0259343-2.878892.221281l-.689812.1009385c-1.159034.1725844-2.372281.3744614-3.624786.5991009-1.508614.270351-2.934973.5632779-4.282818.885684l-.248632.0585854c-1.220724.2962853-2.106825.5567477-2.665778.7879174-1.96475 5.1571926-3.596745 9.5037054-4.899724 13.0395383l-.317799.8694518c-1.136602 3.1417809-1.957273 5.7236424-2.460144 7.7487561-.108426.3550573-.241154.8336289-.392576 1.4392599l-.209374.8399726c-.123381.4916321-.257978 1.0190871-.401923 1.5758348l-.560823 2.1260522-.521565 2.0120533c-.297237 1.1558485-.605689 2.2954647-.923489 3.4251924-.439311 1.6213597-.893578 3.3111934-1.366539 5.0758447l-.964615 3.6205392 14.32155-1.4000786c.327146-1.0873745.674857-2.223819 1.048739-3.412132l.456136-1.4487754c.166377-.4916321.34584-1.0062132.530912-1.546542l1.441315-4.1804587c.605689-1.7256566 1.271199-3.5522518 2.004008-5.4730686.200026-.5211113.422486-1.0907329.667379-1.7094244l.463614-1.1623787c.431833-1.0808443.934705-2.0868709 1.508613-3.0214383.57204-.9343808 1.187076-1.706066 1.848847-2.321399.66364-.6153331 1.405796-.8953862 2.226467-.8465028.502871.0488833.82441.4298749.960877 1.1427881.136467.7130997.147683 1.6344201.033649 2.7643343-.115903 1.1297276-.342102 2.4059187-.686073 3.8321182-.342102 1.4226545-.719723 2.8747883-1.129124 4.3465128-1.005742 3.4869495-2.306852 7.4168344-3.907067 11.7894681 3.426629.5403288 6.441987.6640298 9.046075.3677445 2.605958-.2962853 4.75204-.7356756 6.441987-1.3250744 1.097343-3.2427194 2.21712-6.4108078 3.35933-9.5037054l.340232-.9246788c1.002004-2.7578041 1.895582-5.3982509 2.676995-7.9183552.72907-1.4226545 1.461879-2.5296196 2.192818-3.3143652.72907-.784559 1.714249-1.1297276 2.94619-1.0321475.502871.0488833.800108.5046925.889839 1.3642557.091601.8595632.046736 1.9762304-.136467 3.3535465-.181332 1.3739578-.478569 2.9464342-.889839 4.7144439-.41127 1.7678232-.869275 3.5619538-1.372147 5.3786603-1.080519 3.8841734-2.443319 8.256807-4.088399 13.1145425l-.502872 1.4715379 15.488062-.9571433c3.19856-8.2502768 5.552148-15.6671113 7.060761-22.2505034.639339-2.7999707 1.14221-5.5381842 1.508614-8.2144539.366405-2.6762697.44492-5.0724863.239285-7.1823063-.207505-2.1131784-.755242-3.8321182-1.645081-5.1573792-.893578-1.3316047-2.25077-2.0185835-4.079053-2.0674669zm23.1919 30.0253803c-.183202.9897944-.12712 1.7810702.173855 2.3736408.299106.5925706.734679 1.0515516 1.310457 1.3739578.575778.3222196 1.241288.5209248 2.002138.5925706s1.484311.0358229 2.174124-.1108272l.142075-.3418102c.218721-.5436872.463613-1.2274943.734678-2.0478762l.089732-.280053c.244892-.7586247.497263-1.5107192.751502-2.2594553l.712246-2.0480628c.207504-.6022726.401923-1.1752526.581386-1.7125962l.644947-1.9827606c.009347-.0292927.018694-.055227.026171-.0813478l.014956-.0520552c.013085-.0358229.022432-.068474.03178-.1009385-2.207774-.5436872-4.185609-.2604624-5.937247.853033-1.749767 1.1134954-2.901324 3.0572612-3.4528 5.8245808zm26.156784-14.280093c-.276672 1.211262-.63373 2.6210427-1.069302 4.229342l-.300975 1.0940913c-.358927 1.3023119-.753372 2.692502-1.183337 4.1739284-.415009 1.4293714-.843103 2.8619145-1.280545 4.3041597l-1.190815 3.8679411c-1.185205 3.8354766-2.476968 7.9735821-3.877156 12.4145032l-16.839645 4.229342c.321539-.7422059.620644-1.4845983.897317-2.2269907.185072-.5143946.390707-1.0450214.616905-1.5920671l.970224-2.2659854c-1.151556.5436872-2.462013.9636735-3.935108 1.2599588-1.471225.2962853-2.966753.4461071-4.484714.4461071s-3.002273-.1856447-4.452935-.5567477c-1.450662-.3712895-2.736816-.9507996-3.86407-1.7418888-1.127254-.7912758-2.022702-1.829767-2.691951-3.1158467-.667379-1.2860797-1.000134-2.8423238-1.000134-4.6754491.046735-4.353043 1.151557-8.2112821 3.314464-11.5745307 2.161038-3.3632486 4.944589-5.9613422 8.348785-7.7912958 1.562827-.8399725 3.140609-1.4976587 4.727738-1.9665283 1.587129-.4686831 3.10509-.7780288 4.555752-.9278506 1.450662-.1498219 2.807853-.1856448 4.069705-.1106406 1.263721.0748177 2.381628.2115791 3.346244.4069259.046735-.4948039.104687-.9636736.173855-1.4097807s.089732-.8660934.069168-1.2599588c-.024302-.3972238-.147683-.7554529-.377621-1.0745007-.231806-.3222196-.622513-.6315653-1.17212-.9278506-1.243157-.5925706-2.796637-.8172101-4.658569-.6673882-1.861932.1496353-3.667783.4459206-5.41755.8886693-2.073176.5438738-4.185609 1.2112621-6.348516 2.0023513l5.79704-13.2055924c1.334759-.4949905 2.783551-.8888559 4.348247-1.1883131 1.336629-.2475885 2.875153-.3972238 4.624921-.4461071 1.747898-.0488833 3.658435.123701 5.727872.5209248 1.241288.2962853 2.622782.7032111 4.138873 1.2241359 1.517961.5209248 2.933105 1.3608973 4.243561 2.523276 1.312326 1.1623788 2.404061 2.7447437 3.277076 4.747095.874883 2.0023513 1.312325 4.6135054 1.312325 7.8269321 0 .4623394-.121511 1.2373829-.360796 2.3213991zm44.892011-11.600465c.345841-1.2144338.542129-2.0935877.588864-2.6372749-.60008 0-1.314195.0261208-2.144213.0748176l-.422487.0261209c-.710375.0488833-1.467486.1139989-2.273202.1953468l-.730939.0748176-2.241423.2214677c-1.01322.0975801-2.004007.1498218-2.974231.1498218l2.166646-5.7368894c.177594-.4785716.351449-.940911.514088-1.3836598l.467352-1.2795494c.259848-.72616022.504741-1.41966931.734678-2.08052732l.530913-1.53684005c.132728-.38416337.269195-.77802877.4094-1.17861097l.429965-1.22413591c-.839365.17258432-1.929231.34516864-3.267729.51439456l-1.342236.1660541c-1.422621.17594272-2.905063.37128951-4.443588.58286856-1.794633.24740195-3.536923.52092478-5.217523.81721007-1.680599.2962853-3.052746.61850489-4.112702.96703192-.140205.38733519-.282281.79108921-.428095 1.21443388l-.396315 1.1524901-1.572173 4.66238876-.590734 1.7191264c-.248631.7129131-.514088 1.478068-.805716 2.2921063l-.357057.9994964c-.459875.0324645-.914141.0651156-1.3628.0975801l-4.445457.3127042c-1.400188.0975801-2.490054.1854581-3.275206.2669926l-.596342.0682874-4.284687 14.9377792 9.264796-1.3381348c-.459875 1.5855368-1.026307 3.3438445-1.693686 5.2777218l-.497263 1.4521338c-.493524 1.4553056-.972093 2.9139696-1.437576 4.3823356-.620644 1.9568264-1.162773 3.8289464-1.622648 5.60983-.461744 1.784242-.691682 3.2949612-.691682 4.5321575l-.001869.3614009c-.003739 2.0185836.332755 3.6953568 1.003873 5.0269615.715984 1.413139 1.682469 2.5395083 2.905063 3.3828392 1.220725.843331 2.650823 1.4131391 4.286557 1.7094244 1.633864.2962853 3.363069.4328601 5.183874.4100976 1.820805-.0259343 3.664043-.1985186 5.529715-.5209247 1.865671-.3222196 3.652827-.706383 5.357729-1.1524901l4.770734-13.5248268c-1.059956.247402-2.235815.4720414-3.525707.6673882-1.289893.1987052-2.476969.2345281-3.561226.1108271-1.084258-.1237009-1.972228-.48193-2.66204-1.0776724-.689812-.595929-.921619-1.5368401-.689812-2.8229198l.089731-.5405154c.375752-2.1618751.970224-4.3985679 1.777809-6.7069065.687943-1.9665284 1.417013-4.1218733 2.192818-6.472565l.643077-1.9633566 11.614644-1.3381348c.160769-.4298749.396315-1.1103236.710376-2.041346l.388837-1.1526767c.157031-.4753998.3178-.9605017.480438-1.4553056l.493525-1.5172494c.407531-1.2892515.788891-2.5428667 1.132862-3.7539422z" fill="#f00"/></g></g></svg>