<svg xmlns="http://www.w3.org/2000/svg" xmlns:xlink="http://www.w3.org/1999/xlink" width="1000" zoomAndPan="magnify" viewBox="0 0 750 149.999998" height="200" preserveAspectRatio="xMidYMid meet" version="1.0"><defs><g/></defs><path stroke-linecap="butt" transform="matrix(0.711238, 0, 0, 0.711238, 19.381104, -2.524919)" fill="none" stroke-linejoin="miter" d="M 86.883295 166.997495 L 86.883295 11.354431 L 134.27537 11.354431 C 142.898102 11.354431 150.416905 12.809861 156.831778 15.726211 C 163.274113 18.615101 168.623502 22.536522 172.885438 27.47949 C 177.147375 32.422457 180.338335 37.991534 182.469303 44.175736 C 184.600271 50.337969 185.665756 56.692428 185.665756 63.233622 C 185.665756 71.021542 184.550842 78.348118 182.315522 85.218843 C 180.085694 92.067599 176.889242 98.114496 172.731657 103.365026 C 168.574072 108.615556 163.537738 112.74568 157.633637 115.766382 C 151.724045 118.754132 145.02907 120.302928 137.548713 120.40728 C 136.911619 120.40728 136.647994 120.40728 136.746853 120.40728 C 136.851205 120.40728 136.774314 120.429248 136.521674 120.478678 C 136.269033 120.5336 135.302408 120.555569 133.632784 120.555569 L 133.632784 166.997495 Z M 133.632784 57.950139 L 133.632784 81.149133 C 135.099198 81.149133 136.455768 80.11111 137.702494 78.029571 C 138.943728 75.953525 139.564345 72.894377 139.564345 68.863112 C 139.564345 64.804387 138.965697 61.981403 137.773892 60.383177 C 136.582088 58.75749 135.203549 57.950139 133.632784 57.950139 Z M 250.314279 169.32069 C 241.493828 169.32069 233.387361 167.876245 226.011355 164.981863 C 218.657318 162.065512 212.253429 157.935388 206.799688 152.585998 C 201.351439 147.231117 197.116964 140.816243 194.096261 133.335886 C 191.081051 125.855528 189.5707 117.600773 189.5707 108.577111 C 189.5707 99.751167 191.015145 91.622732 193.909527 84.191804 C 196.825878 76.760876 200.983463 70.346003 206.382282 64.947184 C 211.786593 59.542873 218.201466 55.346842 225.632394 52.353601 C 233.05783 49.338391 241.290617 47.828039 250.314279 47.828039 C 259.167683 47.828039 267.268658 49.288961 274.622695 52.205312 C 281.998701 55.094202 288.419067 59.213341 293.867315 64.568223 C 299.321056 69.917612 303.555532 76.332486 306.570742 83.812843 C 309.591444 91.293201 311.101795 99.547957 311.101795 108.577111 C 311.101795 117.600773 309.591444 125.855528 306.570742 133.335886 C 303.555532 140.816243 299.321056 147.231117 293.867315 152.585998 C 288.419067 157.935388 281.998701 162.065512 274.622695 164.981863 C 267.268658 167.876245 259.167683 169.32069 250.314279 169.32069 Z M 237.07811 108.423329 C 237.07811 112.377703 238.269915 115.574156 240.653523 118.007194 C 243.064593 120.440233 246.283014 121.659498 250.314279 121.659498 C 254.274145 121.659498 257.492566 120.440233 259.975034 118.007194 C 262.490456 115.574156 263.742674 112.377703 263.742674 108.423329 C 263.742674 104.364604 262.490456 101.118722 259.975034 98.685683 C 257.492566 96.252645 254.274145 95.03338 250.314279 95.03338 C 246.387366 95.03338 243.190913 96.252645 240.730414 98.685683 C 238.297376 101.118722 237.07811 104.364604 237.07811 108.423329 Z M 314.968294 166.997495 L 314.968294 11.20065 L 361.717783 11.20065 L 361.717783 166.997495 Z M 394.149142 166.997495 L 364.062947 50.151234 L 414.536137 50.151234 L 422.944674 116.524304 L 431.539946 50.151234 L 482.013137 50.151234 L 467.82682 104.847916 L 442.112404 205.948079 L 396.010993 205.948079 L 405.82553 166.997495 Z M 484.166074 26.792966 L 530.454219 26.792966 L 530.454219 50.151234 L 546.052027 50.151234 L 546.052027 96.895231 L 530.608 96.895231 L 530.608 112.79511 C 530.608 115.28307 531.382398 117.194351 532.925702 118.539936 C 534.50196 119.885522 536.325366 120.555569 538.406904 120.555569 L 545.859801 120.70935 L 545.859801 166.997495 L 532.013999 166.997495 C 523.495619 166.997495 515.597855 165.415745 508.320708 162.246754 C 501.06553 159.077762 495.221844 154.167748 490.784158 147.527695 C 486.36844 140.88215 484.166074 132.413199 484.166074 122.11535 Z M 550.687432 166.997495 L 550.687432 95.03338 C 550.687432 84.741023 552.895291 76.29404 557.305517 69.703417 C 561.743203 63.107301 567.592381 58.202779 574.842067 54.978866 C 582.119214 51.760445 590.02247 50.151234 598.54085 50.151234 L 616.758432 50.151234 L 616.758432 96.59316 L 602.116264 96.59316 C 599.831514 96.59316 598.474944 97.482895 598.046554 99.256871 C 597.640132 101.003386 597.436921 103.222229 597.436921 105.9134 L 597.436921 166.997495 Z M 620.663376 135.203229 C 620.663376 131.369683 621.256532 127.56909 622.448337 123.790466 C 623.640141 119.984381 625.556914 116.524304 628.193163 113.404742 C 630.856874 110.285181 634.41581 107.802712 638.880958 105.951846 C 643.346105 104.073518 648.843783 103.134354 655.390469 103.134354 L 679.693393 103.134354 C 679.693393 100.525566 678.133612 98.839465 675.014051 98.076051 C 671.92195 97.290668 667.253591 96.895231 661.01996 96.895231 L 630.324132 96.895231 L 641.692957 50.151234 L 679.693393 50.151234 C 688.947727 50.151234 697.054194 51.557234 704.001809 54.374725 C 710.971393 57.159264 716.397673 61.574981 720.280649 67.610894 C 724.185593 73.619346 726.135319 81.555555 726.135319 91.419521 L 726.135319 166.997495 L 653.523126 166.997495 C 645.433136 166.997495 638.968833 165.443206 634.124725 162.323644 C 629.308077 159.204083 625.858984 155.205771 623.777446 150.339694 C 621.701399 145.446156 620.663376 140.398837 620.663376 135.203229 Z M 668.813372 124.015646 C 668.813372 125.465583 669.362591 126.476145 670.450044 127.058317 C 671.542989 127.61852 672.756762 127.898622 674.102348 127.898622 L 679.693393 127.898622 L 679.693393 119.945936 L 674.102348 119.945936 C 672.657903 119.945936 671.416669 120.264483 670.373153 120.901576 C 669.33513 121.505717 668.813372 122.549232 668.813372 124.015646 Z M 791.574717 166.997495 C 779.530353 166.997495 768.930434 164.564456 759.77496 159.698379 C 750.646946 154.804842 743.534565 147.96707 738.437816 139.196048 C 733.341068 130.419535 730.792693 120.215053 730.792693 108.577111 C 730.792693 96.730465 733.341068 86.449093 738.437816 77.727501 C 743.534565 69.005909 750.646946 62.206583 759.77496 57.340506 C 768.930434 52.446968 779.530353 50.046883 791.574717 50.151234 C 795.19956 50.151234 797.407419 50.123773 798.192802 50.074344 C 798.978184 50.024914 799.181395 49.997453 798.802434 49.997453 C 798.445442 49.997453 798.269692 49.997453 798.269692 49.997453 L 798.423474 95.03338 C 798.423474 95.03338 797.852286 95.03338 796.709912 95.03338 C 795.567537 95.03338 793.853975 95.03338 791.574717 95.03338 C 787.620343 95.03338 784.423891 96.126325 781.990853 98.306723 C 779.552322 100.48712 778.338549 103.590206 778.338549 107.62147 C 778.338549 111.680196 779.552322 114.799758 781.990853 116.980155 C 784.423891 119.160553 787.620343 120.253498 791.574717 120.253498 C 793.853975 120.253498 795.567537 120.253498 796.709912 120.253498 C 797.852286 120.253498 798.423474 120.253498 798.423474 120.253498 L 798.269692 166.997495 C 799.307716 166.997495 799.560356 166.997495 799.027614 166.997495 C 798.522333 166.997495 798.269692 166.997495 798.269692 166.997495 C 797.863271 166.997495 797.116333 166.997495 796.023388 166.997495 C 794.935935 166.997495 793.453045 166.997495 791.574717 166.997495 Z M 803.860738 11.20065 L 850.604734 11.20065 L 850.604734 80.693281 L 865.406176 50.151234 L 913.100321 50.151234 L 884.727687 108.577111 L 913.100321 166.997495 L 865.406176 166.997495 L 850.604734 136.455448 L 850.604734 166.997495 L 803.860738 166.997495 Z M 803.860738 11.20065 " stroke="#001780" stroke-width="11.6856" stroke-opacity="1" stroke-miterlimit="4"/><g fill="#5271ff" fill-opacity="1"><g transform="translate(79.525144, 116.251782)"><g><path d="M 1.65625 0 L 1.65625 -110.703125 L 35.34375 -110.703125 C 41.476562 -110.703125 46.832031 -109.664062 51.40625 -107.59375 C 55.988281 -105.53125 59.796875 -102.742188 62.828125 -99.234375 C 65.859375 -95.722656 68.128906 -91.769531 69.640625 -87.375 C 71.160156 -82.976562 71.921875 -78.453125 71.921875 -73.796875 C 71.921875 -68.253906 71.125 -63.046875 69.53125 -58.171875 C 67.945312 -53.296875 65.675781 -48.992188 62.71875 -45.265625 C 59.757812 -41.535156 56.175781 -38.597656 51.96875 -36.453125 C 47.757812 -34.316406 42.992188 -33.210938 37.671875 -33.140625 C 37.234375 -33.140625 37.050781 -33.140625 37.125 -33.140625 C 37.195312 -33.140625 37.140625 -33.117188 36.953125 -33.078125 C 36.765625 -33.035156 36.082031 -33.015625 34.90625 -33.015625 L 34.90625 0 Z M 34.90625 -77.5625 L 34.90625 -61.0625 C 35.9375 -61.0625 36.894531 -61.796875 37.78125 -63.265625 C 38.664062 -64.742188 39.109375 -66.925781 39.109375 -69.8125 C 39.109375 -72.695312 38.679688 -74.707031 37.828125 -75.84375 C 36.984375 -76.988281 36.007812 -77.5625 34.90625 -77.5625 Z M 34.90625 -77.5625 "/></g></g></g><g fill="#5271ff" fill-opacity="1"><g transform="translate(153.102012, 116.251782)"><g><path d="M 44.328125 1.65625 C 38.046875 1.65625 32.28125 0.625 27.03125 -1.4375 C 21.789062 -3.507812 17.226562 -6.445312 13.34375 -10.25 C 9.46875 -14.050781 6.457031 -18.609375 4.3125 -23.921875 C 2.175781 -29.242188 1.109375 -35.117188 1.109375 -41.546875 C 1.109375 -47.828125 2.140625 -53.609375 4.203125 -58.890625 C 6.273438 -64.171875 9.234375 -68.734375 13.078125 -72.578125 C 16.921875 -76.421875 21.484375 -79.410156 26.765625 -81.546875 C 32.046875 -83.691406 37.898438 -84.765625 44.328125 -84.765625 C 50.609375 -84.765625 56.367188 -83.726562 61.609375 -81.65625 C 66.859375 -79.59375 71.421875 -76.660156 75.296875 -72.859375 C 79.171875 -69.054688 82.179688 -64.492188 84.328125 -59.171875 C 86.472656 -53.859375 87.546875 -47.984375 87.546875 -41.546875 C 87.546875 -35.117188 86.472656 -29.242188 84.328125 -23.921875 C 82.179688 -18.609375 79.171875 -14.050781 75.296875 -10.25 C 71.421875 -6.445312 66.859375 -3.507812 61.609375 -1.4375 C 56.367188 0.625 50.609375 1.65625 44.328125 1.65625 Z M 34.90625 -41.671875 C 34.90625 -38.859375 35.753906 -36.582031 37.453125 -34.84375 C 39.148438 -33.113281 41.441406 -32.25 44.328125 -32.25 C 47.128906 -32.25 49.414062 -33.113281 51.1875 -34.84375 C 52.96875 -36.582031 53.859375 -38.859375 53.859375 -41.671875 C 53.859375 -44.546875 52.96875 -46.851562 51.1875 -48.59375 C 49.414062 -50.332031 47.128906 -51.203125 44.328125 -51.203125 C 41.515625 -51.203125 39.238281 -50.332031 37.5 -48.59375 C 35.769531 -46.851562 34.90625 -44.546875 34.90625 -41.671875 Z M 34.90625 -41.671875 "/></g></g></g><g fill="#5271ff" fill-opacity="1"><g transform="translate(241.748848, 116.251782)"><g><path d="M 1.65625 0 L 1.65625 -110.8125 L 34.90625 -110.8125 L 34.90625 0 Z M 1.65625 0 "/></g></g></g><g fill="#5271ff" fill-opacity="1"><g transform="translate(278.315655, 116.251782)"><g><path d="M 21.390625 0 L 0 -83.109375 L 35.90625 -83.109375 L 41.890625 -35.90625 L 47.984375 -83.109375 L 83.890625 -83.109375 L 73.796875 -44.21875 L 55.515625 27.703125 L 22.71875 27.703125 L 29.703125 0 Z M 21.390625 0 "/></g></g></g><g fill="#5271ff" fill-opacity="1"><g transform="translate(362.086905, 116.251782)"><g><path d="M 1.65625 -99.734375 L 34.578125 -99.734375 L 34.578125 -83.109375 L 45.65625 -83.109375 L 45.65625 -49.859375 L 34.6875 -49.859375 L 34.6875 -38.5625 C 34.6875 -36.789062 35.238281 -35.421875 36.34375 -34.453125 C 37.457031 -33.492188 38.75 -33.015625 40.21875 -33.015625 L 45.546875 -32.90625 L 45.546875 0 L 35.6875 0 C 29.625 0 24.003906 -1.125 18.828125 -3.375 C 13.660156 -5.632812 9.503906 -9.125 6.359375 -13.84375 C 3.222656 -18.570312 1.65625 -24.59375 1.65625 -31.90625 Z M 1.65625 -99.734375 "/></g></g></g><g fill="#5271ff" fill-opacity="1"><g transform="translate(409.402143, 116.251782)"><g><path d="M 1.65625 0 L 1.65625 -51.203125 C 1.65625 -58.515625 3.222656 -64.515625 6.359375 -69.203125 C 9.503906 -73.890625 13.660156 -77.378906 18.828125 -79.671875 C 24.003906 -81.960938 29.625 -83.109375 35.6875 -83.109375 L 48.640625 -83.109375 L 48.640625 -50.09375 L 38.234375 -50.09375 C 36.609375 -50.09375 35.644531 -49.460938 35.34375 -48.203125 C 35.050781 -46.941406 34.90625 -45.351562 34.90625 -43.4375 L 34.90625 0 Z M 1.65625 0 "/></g></g></g><g fill="#5271ff" fill-opacity="1"><g transform="translate(459.709232, 116.251782)"><g><path d="M 1.109375 -22.609375 C 1.109375 -25.335938 1.53125 -28.050781 2.375 -30.75 C 3.226562 -33.445312 4.597656 -35.898438 6.484375 -38.109375 C 8.367188 -40.328125 10.898438 -42.101562 14.078125 -43.4375 C 17.253906 -44.769531 21.164062 -45.4375 25.8125 -45.4375 L 43.109375 -45.4375 C 43.109375 -47.28125 42 -48.476562 39.78125 -49.03125 C 37.5625 -49.582031 34.238281 -49.859375 29.8125 -49.859375 L 7.984375 -49.859375 L 16.0625 -83.109375 L 43.109375 -83.109375 C 49.679688 -83.109375 55.441406 -82.109375 60.390625 -80.109375 C 65.335938 -78.117188 69.195312 -74.976562 71.96875 -70.6875 C 74.738281 -66.40625 76.125 -60.757812 76.125 -53.75 L 76.125 0 L 24.484375 0 C 18.722656 0 14.125 -1.109375 10.6875 -3.328125 C 7.257812 -5.546875 4.804688 -8.390625 3.328125 -11.859375 C 1.847656 -15.328125 1.109375 -18.910156 1.109375 -22.609375 Z M 35.34375 -30.578125 C 35.34375 -29.546875 35.726562 -28.828125 36.5 -28.421875 C 37.28125 -28.015625 38.148438 -27.8125 39.109375 -27.8125 L 43.109375 -27.8125 L 43.109375 -33.46875 L 39.109375 -33.46875 C 38.078125 -33.46875 37.191406 -33.242188 36.453125 -32.796875 C 35.710938 -32.359375 35.34375 -31.617188 35.34375 -30.578125 Z M 35.34375 -30.578125 "/></g></g></g><g fill="#5271ff" fill-opacity="1"><g transform="translate(537.496821, 116.251782)"><g><path d="M 44.875 0 C 36.3125 0 28.773438 -1.734375 22.265625 -5.203125 C 15.765625 -8.679688 10.703125 -13.539062 7.078125 -19.78125 C 3.460938 -26.019531 1.65625 -33.273438 1.65625 -41.546875 C 1.65625 -49.972656 3.460938 -57.285156 7.078125 -63.484375 C 10.703125 -69.691406 15.765625 -74.53125 22.265625 -78 C 28.773438 -81.476562 36.3125 -83.179688 44.875 -83.109375 C 47.457031 -83.109375 49.023438 -83.125 49.578125 -83.15625 C 50.140625 -83.195312 50.289062 -83.21875 50.03125 -83.21875 C 49.769531 -83.21875 49.640625 -83.21875 49.640625 -83.21875 L 49.75 -51.203125 C 49.75 -51.203125 49.34375 -51.203125 48.53125 -51.203125 C 47.71875 -51.203125 46.5 -51.203125 44.875 -51.203125 C 42.070312 -51.203125 39.800781 -50.425781 38.0625 -48.875 C 36.320312 -47.320312 35.453125 -45.101562 35.453125 -42.21875 C 35.453125 -39.332031 36.320312 -37.113281 38.0625 -35.5625 C 39.800781 -34.019531 42.070312 -33.25 44.875 -33.25 C 46.5 -33.25 47.71875 -33.25 48.53125 -33.25 C 49.34375 -33.25 49.75 -33.25 49.75 -33.25 L 49.640625 0 C 50.378906 0 50.5625 0 50.1875 0 C 49.820312 0 49.640625 0 49.640625 0 C 49.347656 0 48.8125 0 48.03125 0 C 47.257812 0 46.207031 0 44.875 0 Z M 44.875 0 "/></g></g></g><g fill="#5271ff" fill-opacity="1"><g transform="translate(589.466012, 116.251782)"><g><path d="M 1.65625 -110.8125 L 34.90625 -110.8125 L 34.90625 -61.390625 L 45.4375 -83.109375 L 79.34375 -83.109375 L 59.171875 -41.546875 L 79.34375 0 L 45.4375 0 L 34.90625 -21.71875 L 34.90625 0 L 1.65625 0 Z M 1.65625 -110.8125 "/></g></g></g><path stroke-linecap="butt" transform="matrix(0.201019, 0, 0, 0.201019, 308.37163, 113.088965)" fill="none" stroke-linejoin="miter" d="M 133.613704 11.352824 L 226.014206 11.352824 L 226.014206 58.106895 L 180.367775 58.106895 L 180.367775 65.89924 L 216.68671 65.89924 L 216.68671 112.614446 L 180.367775 112.614446 L 180.367775 167.005403 L 133.613704 167.005403 Z M 230.677953 167.005403 L 230.677953 95.028231 C 230.677953 84.729121 232.893234 76.295511 237.304362 69.707967 C 241.734922 63.100991 247.584039 58.204056 254.83228 54.978297 C 262.119386 51.752539 270.008892 50.159091 278.520232 50.159091 L 296.747712 50.159091 L 296.747712 96.602246 L 282.095772 96.602246 C 279.822195 96.602246 278.461935 97.476698 278.034425 99.264468 C 277.626347 101.013374 277.432024 103.228654 277.432024 105.910309 L 277.432024 167.005403 Z M 361.398915 169.317845 C 352.576659 169.317845 344.473397 167.879856 337.08913 164.984446 C 329.743727 162.069604 323.331074 157.930528 317.890035 152.58665 C 312.429564 147.242773 308.193327 140.810687 305.181323 133.329259 C 302.149887 125.84783 300.653601 117.608543 300.653601 108.572531 C 300.653601 99.750275 302.09159 91.627581 304.987 84.185017 C 307.901842 76.761886 312.060351 70.349233 317.462525 64.947058 C 322.864699 59.544884 329.277353 55.347511 336.700484 52.354939 C 344.143048 49.342936 352.362904 47.827218 361.398915 47.827218 C 370.240603 47.827218 378.343865 49.284639 385.7087 52.199481 C 393.073535 55.094891 399.486188 59.214535 404.946659 64.558412 C 410.40713 69.921722 414.643368 76.334375 417.655371 83.815804 C 420.667375 91.297233 422.183093 99.555952 422.183093 108.572531 C 422.183093 117.608543 420.667375 125.84783 417.655371 133.329259 C 414.643368 140.810687 410.40713 147.242773 404.946659 152.58665 C 399.486188 157.930528 393.073535 162.069604 385.7087 164.984446 C 378.343865 167.879856 370.240603 169.317845 361.398915 169.317845 Z M 348.165531 108.417073 C 348.165531 112.381259 349.3509 115.568153 351.741071 118.01662 C 354.150674 120.445656 357.357 121.650457 361.398915 121.650457 C 365.343668 121.650457 368.569427 120.445656 371.056759 118.01662 C 373.563523 115.568153 374.826622 112.381259 374.826622 108.417073 C 374.826622 104.375158 373.563523 101.110535 371.056759 98.6815 C 368.569427 96.252465 365.343668 95.028231 361.398915 95.028231 C 357.473594 95.028231 354.267267 96.252465 351.8188 98.6815 C 349.370332 101.110535 348.165531 104.375158 348.165531 108.417073 Z M 473.600911 167.005403 L 426.050117 167.005403 L 426.050117 50.159091 L 479.9747 50.159091 C 485.279713 50.159091 490.370971 50.74206 495.229041 51.946861 C 500.125976 53.132231 504.537104 54.978297 508.481858 57.485062 C 510.852596 55.716724 514.097787 54.045548 518.217431 52.510398 C 522.317643 50.936383 527.642088 50.159091 534.190767 50.159091 C 542.702106 50.159091 550.591613 51.752539 557.839854 54.978297 C 565.12696 58.204056 570.976077 63.100991 575.387205 69.707967 C 579.817765 76.295511 582.033045 84.729121 582.033045 95.028231 L 582.033045 167.005403 L 535.745349 167.005403 L 535.745349 105.910309 C 535.745349 103.228654 535.551027 101.013374 535.181813 99.264468 C 534.8126 97.476698 533.45234 96.602246 531.062169 96.602246 L 527.797546 96.602246 L 527.797546 167.005403 L 481.548715 167.005403 L 481.548715 105.910309 C 481.548715 103.228654 481.354392 101.013374 480.965746 99.264468 C 480.615965 97.476698 479.255705 96.602246 476.865535 96.602246 L 473.600911 96.602246 Z M 636.521164 87.838286 C 636.521164 72.078706 639.5526 58.437244 645.576608 46.952765 C 651.620047 35.468286 660.636626 26.64603 672.626344 20.485997 C 684.616062 14.287099 699.598352 11.197366 717.55378 11.197366 L 729.271446 11.197366 L 729.271446 57.951437 L 717.55378 57.951437 C 704.573016 57.951437 695.420411 60.691388 690.115398 66.210156 C 684.84925 71.709492 682.206459 79.346379 682.206459 89.101385 C 682.206459 94.503559 683.625016 99.283901 686.481561 103.442409 C 689.338107 107.600917 693.146834 110.865541 697.927176 113.255711 L 697.927176 89.101385 L 729.271446 89.101385 L 729.271446 167.005403 L 717.55378 167.005403 C 699.598352 167.005403 684.616062 163.701916 672.626344 157.114372 C 660.636626 150.526828 651.620047 141.277062 645.576608 129.384505 C 639.5526 117.491949 636.521164 103.636732 636.521164 87.838286 Z M 734.362704 26.801488 L 780.669833 26.801488 L 780.669833 50.159091 L 796.254523 50.159091 L 796.254523 96.89373 L 780.805858 96.89373 L 780.805858 112.789337 C 780.805858 115.276669 781.58315 117.200465 783.137732 118.541292 C 784.711747 119.88212 786.538382 120.562249 788.617636 120.562249 L 796.0602 120.717708 L 796.0602 167.005403 L 782.224415 167.005403 C 773.693643 167.005403 765.804137 165.411956 758.517031 162.244494 C 751.26879 159.077032 745.419673 154.160665 740.989113 147.534257 C 736.577985 140.888416 734.362704 132.415941 734.362704 122.116832 Z M 800.898838 122.116832 L 800.898838 50.159091 L 847.633476 50.159091 L 847.633476 111.234754 C 847.633476 113.819247 847.847232 116.034528 848.25531 117.861162 C 848.68282 119.648932 850.043079 120.562249 852.316656 120.562249 L 855.600712 120.562249 L 855.600712 50.159091 L 902.33535 50.159091 L 902.33535 167.005403 L 848.741117 167.005403 C 840.229777 167.005403 832.320838 165.411956 825.053165 162.244494 C 817.804924 159.077032 811.955807 154.160665 807.505814 147.534257 C 803.094686 140.888416 800.898838 132.415941 800.898838 122.116832 Z M 906.999098 11.197366 L 953.733737 11.197366 L 953.733737 50.159091 C 966.520178 50.159091 977.169069 52.52983 985.699841 57.271307 C 994.21118 61.973919 1000.623833 68.697489 1004.9378 77.422583 C 1009.251766 86.147678 1011.40875 96.524516 1011.40875 108.572531 C 1011.40875 117.705704 1009.893032 125.886695 1006.881028 133.115504 C 1003.869024 140.344313 999.729948 146.465481 994.483232 151.517875 C 989.236516 156.531403 983.134779 160.378995 976.178022 163.041218 C 969.240698 165.684008 961.759269 167.005403 953.733737 167.005403 L 906.999098 167.005403 Z M 953.733737 95.339147 L 953.733737 120.717708 C 956.454256 120.717708 958.766698 119.474042 960.671061 116.986709 C 962.594857 114.499377 963.547039 111.487374 963.547039 107.970131 C 963.547039 106.085199 963.158393 104.161403 962.381102 102.179311 C 961.623243 100.197218 960.496171 98.564906 959.019317 97.282375 C 957.581328 95.980413 955.812991 95.339147 953.733737 95.339147 Z M 1015.295206 108.572531 C 1015.295206 99.750275 1016.733195 91.627581 1019.628605 84.185017 C 1022.543447 76.761886 1026.721388 70.349233 1032.181859 64.947058 C 1037.622898 59.544884 1044.074416 55.347511 1051.497548 52.354939 C 1058.940112 49.342936 1067.159967 47.827218 1076.195978 47.827218 C 1087.116921 47.827218 1096.522145 49.595555 1104.411652 53.112798 C 1112.301158 56.649474 1118.597218 61.449247 1123.319262 67.531552 C 1128.060739 73.594424 1131.150472 80.551181 1132.588461 88.421255 C 1134.065314 96.252465 1133.754398 104.530617 1131.675143 113.255711 L 1062.185303 113.255711 C 1062.185303 115.645882 1063.448401 117.394787 1065.99403 118.541292 C 1068.559091 119.687797 1071.901444 120.251333 1076.04052 120.251333 C 1076.778947 120.251333 1078.566717 120.251333 1081.40383 120.251333 C 1084.260375 120.251333 1087.719321 120.251333 1091.780668 120.251333 C 1095.842015 120.251333 1100.039388 120.251333 1104.411652 120.251333 C 1108.764483 120.251333 1112.82583 120.251333 1116.537396 120.251333 C 1120.287826 120.251333 1123.358127 120.251333 1125.748297 120.251333 C 1128.138468 120.251333 1129.323837 120.251333 1129.323837 120.251333 L 1129.323837 167.005403 C 1129.323837 167.005403 1124.854412 167.005403 1115.934995 167.005403 C 1107.015577 167.005403 1093.704464 167.005403 1076.04052 167.005403 C 1064.322854 167.005403 1053.887718 164.67353 1044.735113 160.009782 C 1035.601941 155.30717 1028.411997 148.5836 1023.16528 139.800209 C 1017.918564 131.036249 1015.295206 120.620546 1015.295206 108.572531 Z M 1076.04052 88.63501 C 1072.7176 88.63501 1069.783325 89.373437 1067.257128 90.811426 C 1064.711499 92.249414 1062.807136 94.289804 1061.544037 96.89373 L 1090.673028 96.89373 C 1089.332201 94.289804 1087.388973 92.249414 1084.823911 90.811426 C 1082.278282 89.373437 1079.36344 88.63501 1076.04052 88.63501 Z M 1184.161737 119.940416 L 1184.161737 166.849945 L 1137.407667 167.160862 L 1137.407667 119.940416 Z M 1188.825485 50.159091 L 1242.419719 50.159091 C 1250.950491 50.159091 1258.839997 51.752539 1266.127103 54.978297 C 1273.394776 58.204056 1279.243893 63.100991 1283.655021 69.707967 C 1288.066149 76.295511 1290.28143 84.729121 1290.28143 95.028231 L 1290.28143 167.005403 L 1243.527359 167.005403 L 1243.527359 105.910309 C 1243.527359 103.228654 1243.333036 101.013374 1242.963823 99.264468 C 1242.594609 97.476698 1241.23435 96.602246 1238.844179 96.602246 L 1235.579556 96.602246 L 1235.579556 167.005403 L 1188.825485 167.005403 Z M 1294.167886 108.572531 C 1294.167886 99.750275 1295.605875 91.627581 1298.501285 84.185017 C 1301.416127 76.761886 1305.594068 70.349233 1311.054539 64.947058 C 1316.51501 59.544884 1322.947096 55.347511 1330.370227 52.354939 C 1337.812791 49.342936 1346.032647 47.827218 1355.068658 47.827218 C 1365.9896 47.827218 1375.394825 49.595555 1383.284331 53.112798 C 1391.173838 56.649474 1397.469897 61.449247 1402.191942 67.531552 C 1406.933419 73.594424 1410.023152 80.551181 1411.480573 88.421255 C 1412.937994 96.252465 1412.64651 104.530617 1410.567256 113.255711 L 1341.057983 113.255711 C 1341.057983 115.645882 1342.340513 117.394787 1344.86671 118.541292 C 1347.431771 119.687797 1350.774124 120.251333 1354.9132 120.251333 C 1355.651626 120.251333 1357.439396 120.251333 1360.27651 120.251333 C 1363.133055 120.251333 1366.592001 120.251333 1370.653348 120.251333 C 1374.714695 120.251333 1378.9315 120.251333 1383.284331 120.251333 C 1387.656595 120.251333 1391.69851 120.251333 1395.429508 120.251333 C 1399.179938 120.251333 1402.250239 120.251333 1404.620977 120.251333 C 1407.011148 120.251333 1408.196517 120.251333 1408.196517 120.251333 L 1408.196517 167.005403 C 1408.196517 167.005403 1403.746525 167.005403 1394.807675 167.005403 C 1385.888257 167.005403 1372.577144 167.005403 1354.9132 167.005403 C 1343.195534 167.005403 1332.760398 164.67353 1323.607793 160.009782 C 1314.474621 155.30717 1307.284676 148.5836 1302.03796 139.800209 C 1296.791244 131.036249 1294.167886 120.620546 1294.167886 108.572531 Z M 1354.9132 88.63501 C 1351.590279 88.63501 1348.656005 89.373437 1346.129808 90.811426 C 1343.584179 92.249414 1341.679816 94.289804 1340.416717 96.89373 L 1369.545708 96.89373 C 1368.204881 94.289804 1366.261652 92.249414 1363.696591 90.811426 C 1361.170395 89.373437 1358.23612 88.63501 1354.9132 88.63501 Z M 1416.299779 26.801488 L 1462.587475 26.801488 L 1462.587475 50.159091 L 1478.172165 50.159091 L 1478.172165 96.89373 L 1462.742933 96.89373 L 1462.742933 112.789337 C 1462.742933 115.276669 1463.500792 117.200465 1465.055374 118.541292 C 1466.629389 119.88212 1468.456024 120.562249 1470.535278 120.562249 L 1477.997274 120.717708 L 1477.997274 167.005403 L 1464.142057 167.005403 C 1455.630718 167.005403 1447.721779 165.411956 1440.454105 162.244494 C 1433.186432 159.077032 1427.356747 154.160665 1422.906755 147.534257 C 1418.495627 140.888416 1416.299779 132.415941 1416.299779 122.116832 Z M 1416.299779 26.801488 " stroke="#001780" stroke-width="24.73452" stroke-opacity="1" stroke-miterlimit="4"/><g fill="#5271ff" fill-opacity="1"><g transform="translate(334.764743, 146.65907)"><g><path d="M 0.46875 -31.28125 L 19.03125 -31.28125 L 19.03125 -21.890625 L 9.859375 -21.890625 L 9.859375 -20.328125 L 17.15625 -20.328125 L 17.15625 -10.921875 L 9.859375 -10.921875 L 9.859375 0 L 0.46875 0 Z M 0.46875 -31.28125 "/></g></g></g><g fill="#5271ff" fill-opacity="1"><g transform="translate(354.275886, 146.65907)"><g><path d="M 0.46875 0 L 0.46875 -14.46875 C 0.46875 -16.53125 0.910156 -18.222656 1.796875 -19.546875 C 2.679688 -20.878906 3.851562 -21.867188 5.3125 -22.515625 C 6.78125 -23.160156 8.367188 -23.484375 10.078125 -23.484375 L 13.75 -23.484375 L 13.75 -14.15625 L 10.796875 -14.15625 C 10.335938 -14.15625 10.066406 -13.976562 9.984375 -13.625 C 9.898438 -13.269531 9.859375 -12.820312 9.859375 -12.28125 L 9.859375 0 Z M 0.46875 0 "/></g></g></g><g fill="#5271ff" fill-opacity="1"><g transform="translate(368.49428, 146.65907)"><g><path d="M 12.53125 0.46875 C 10.75 0.46875 9.117188 0.175781 7.640625 -0.40625 C 6.160156 -0.988281 4.867188 -1.816406 3.765625 -2.890625 C 2.671875 -3.972656 1.820312 -5.265625 1.21875 -6.765625 C 0.613281 -8.265625 0.3125 -9.921875 0.3125 -11.734375 C 0.3125 -13.515625 0.601562 -15.148438 1.1875 -16.640625 C 1.769531 -18.128906 2.601562 -19.414062 3.6875 -20.5 C 4.78125 -21.59375 6.070312 -22.441406 7.5625 -23.046875 C 9.050781 -23.648438 10.707031 -23.953125 12.53125 -23.953125 C 14.300781 -23.953125 15.925781 -23.660156 17.40625 -23.078125 C 18.894531 -22.492188 20.1875 -21.660156 21.28125 -20.578125 C 22.375 -19.503906 23.222656 -18.21875 23.828125 -16.71875 C 24.429688 -15.21875 24.734375 -13.554688 24.734375 -11.734375 C 24.734375 -9.921875 24.429688 -8.265625 23.828125 -6.765625 C 23.222656 -5.265625 22.375 -3.972656 21.28125 -2.890625 C 20.1875 -1.816406 18.894531 -0.988281 17.40625 -0.40625 C 15.925781 0.175781 14.300781 0.46875 12.53125 0.46875 Z M 9.859375 -11.78125 C 9.859375 -10.976562 10.097656 -10.332031 10.578125 -9.84375 C 11.054688 -9.351562 11.707031 -9.109375 12.53125 -9.109375 C 13.320312 -9.109375 13.96875 -9.351562 14.46875 -9.84375 C 14.96875 -10.332031 15.21875 -10.976562 15.21875 -11.78125 C 15.21875 -12.59375 14.96875 -13.242188 14.46875 -13.734375 C 13.96875 -14.222656 13.320312 -14.46875 12.53125 -14.46875 C 11.726562 -14.46875 11.082031 -14.222656 10.59375 -13.734375 C 10.101562 -13.242188 9.859375 -12.59375 9.859375 -11.78125 Z M 9.859375 -11.78125 "/></g></g></g><g fill="#5271ff" fill-opacity="1"><g transform="translate(393.548719, 146.65907)"><g><path d="M 10.015625 0 L 0.46875 0 L 0.46875 -23.484375 L 11.296875 -23.484375 C 12.367188 -23.484375 13.394531 -23.363281 14.375 -23.125 C 15.351562 -22.882812 16.238281 -22.515625 17.03125 -22.015625 C 17.507812 -22.367188 18.160156 -22.703125 18.984375 -23.015625 C 19.816406 -23.328125 20.890625 -23.484375 22.203125 -23.484375 C 23.910156 -23.484375 25.492188 -23.160156 26.953125 -22.515625 C 28.421875 -21.867188 29.597656 -20.878906 30.484375 -19.546875 C 31.367188 -18.222656 31.8125 -16.53125 31.8125 -14.46875 L 31.8125 0 L 22.515625 0 L 22.515625 -12.28125 C 22.515625 -12.820312 22.476562 -13.269531 22.40625 -13.625 C 22.332031 -13.976562 22.054688 -14.15625 21.578125 -14.15625 L 20.921875 -14.15625 L 20.921875 0 L 11.609375 0 L 11.609375 -12.28125 C 11.609375 -12.820312 11.570312 -13.269531 11.5 -13.625 C 11.425781 -13.976562 11.148438 -14.15625 10.671875 -14.15625 L 10.015625 -14.15625 Z M 10.015625 0 "/></g></g></g><g fill="#5271ff" fill-opacity="1"><g transform="translate(425.837625, 146.65907)"><g/></g></g><g fill="#5271ff" fill-opacity="1"><g transform="translate(435.859403, 146.65907)"><g><path d="M 0.46875 -15.90625 C 0.46875 -19.082031 1.070312 -21.820312 2.28125 -24.125 C 3.5 -26.4375 5.3125 -28.210938 7.71875 -29.453125 C 10.125 -30.691406 13.132812 -31.3125 16.75 -31.3125 L 19.09375 -31.3125 L 19.09375 -21.921875 L 16.75 -21.921875 C 14.144531 -21.921875 12.304688 -21.363281 11.234375 -20.25 C 10.171875 -19.144531 9.640625 -17.613281 9.640625 -15.65625 C 9.640625 -14.570312 9.925781 -13.609375 10.5 -12.765625 C 11.070312 -11.929688 11.84375 -11.273438 12.8125 -10.796875 L 12.8125 -15.65625 L 19.09375 -15.65625 L 19.09375 0 L 16.75 0 C 13.132812 0 10.125 -0.660156 7.71875 -1.984375 C 5.3125 -3.316406 3.5 -5.175781 2.28125 -7.5625 C 1.070312 -9.945312 0.46875 -12.726562 0.46875 -15.90625 Z M 0.46875 -15.90625 "/></g></g></g><g fill="#5271ff" fill-opacity="1"><g transform="translate(455.527129, 146.65907)"><g><path d="M 0.46875 -28.1875 L 9.765625 -28.1875 L 9.765625 -23.484375 L 12.90625 -23.484375 L 12.90625 -14.09375 L 9.796875 -14.09375 L 9.796875 -10.890625 C 9.796875 -10.390625 9.953125 -10.003906 10.265625 -9.734375 C 10.578125 -9.460938 10.941406 -9.328125 11.359375 -9.328125 L 12.875 -9.296875 L 12.875 0 L 10.078125 0 C 8.367188 0 6.78125 -0.316406 5.3125 -0.953125 C 3.851562 -1.585938 2.679688 -2.570312 1.796875 -3.90625 C 0.910156 -5.25 0.46875 -6.953125 0.46875 -9.015625 Z M 0.46875 -28.1875 "/></g></g></g><g fill="#5271ff" fill-opacity="1"><g transform="translate(468.899933, 146.65907)"><g><path d="M 0.46875 -9.015625 L 0.46875 -23.484375 L 9.859375 -23.484375 L 9.859375 -11.203125 C 9.859375 -10.679688 9.898438 -10.238281 9.984375 -9.875 C 10.066406 -9.507812 10.335938 -9.328125 10.796875 -9.328125 L 11.453125 -9.328125 L 11.453125 -23.484375 L 20.859375 -23.484375 L 20.859375 0 L 10.078125 0 C 8.367188 0 6.78125 -0.316406 5.3125 -0.953125 C 3.851562 -1.585938 2.679688 -2.570312 1.796875 -3.90625 C 0.910156 -5.25 0.46875 -6.953125 0.46875 -9.015625 Z M 0.46875 -9.015625 "/></g></g></g><g fill="#5271ff" fill-opacity="1"><g transform="translate(490.227522, 146.65907)"><g><path d="M 0.46875 -31.3125 L 9.859375 -31.3125 L 9.859375 -23.484375 C 12.429688 -23.484375 14.570312 -23.007812 16.28125 -22.0625 C 17.988281 -21.113281 19.273438 -19.757812 20.140625 -18 C 21.015625 -16.25 21.453125 -14.160156 21.453125 -11.734375 C 21.453125 -9.898438 21.148438 -8.257812 20.546875 -6.8125 C 19.941406 -5.363281 19.109375 -4.128906 18.046875 -3.109375 C 16.992188 -2.097656 15.769531 -1.328125 14.375 -0.796875 C 12.976562 -0.265625 11.472656 0 9.859375 0 L 0.46875 0 Z M 9.859375 -14.40625 L 9.859375 -9.296875 C 10.398438 -9.296875 10.863281 -9.546875 11.25 -10.046875 C 11.644531 -10.546875 11.84375 -11.15625 11.84375 -11.875 C 11.84375 -12.25 11.757812 -12.632812 11.59375 -13.03125 C 11.4375 -13.425781 11.210938 -13.753906 10.921875 -14.015625 C 10.628906 -14.273438 10.273438 -14.40625 9.859375 -14.40625 Z M 9.859375 -14.40625 "/></g></g></g><g fill="#5271ff" fill-opacity="1"><g transform="translate(512.150155, 146.65907)"><g><path d="M 0.3125 -11.734375 C 0.3125 -13.515625 0.601562 -15.148438 1.1875 -16.640625 C 1.769531 -18.128906 2.609375 -19.414062 3.703125 -20.5 C 4.804688 -21.59375 6.101562 -22.441406 7.59375 -23.046875 C 9.082031 -23.648438 10.738281 -23.953125 12.5625 -23.953125 C 14.75 -23.953125 16.632812 -23.597656 18.21875 -22.890625 C 19.8125 -22.179688 21.082031 -21.210938 22.03125 -19.984375 C 22.976562 -18.765625 23.597656 -17.367188 23.890625 -15.796875 C 24.179688 -14.222656 24.117188 -12.554688 23.703125 -10.796875 L 9.734375 -10.796875 C 9.734375 -10.316406 9.988281 -9.960938 10.5 -9.734375 C 11.007812 -9.503906 11.6875 -9.390625 12.53125 -9.390625 C 12.675781 -9.390625 13.035156 -9.390625 13.609375 -9.390625 C 14.179688 -9.390625 14.875 -9.390625 15.6875 -9.390625 C 16.5 -9.390625 17.34375 -9.390625 18.21875 -9.390625 C 19.09375 -9.390625 19.90625 -9.390625 20.65625 -9.390625 C 21.414062 -9.390625 22.035156 -9.390625 22.515625 -9.390625 C 22.992188 -9.390625 23.234375 -9.390625 23.234375 -9.390625 L 23.234375 0 C 23.234375 0 22.332031 0 20.53125 0 C 18.738281 0 16.070312 0 12.53125 0 C 10.164062 0 8.0625 -0.46875 6.21875 -1.40625 C 4.382812 -2.34375 2.941406 -3.691406 1.890625 -5.453125 C 0.835938 -7.222656 0.3125 -9.316406 0.3125 -11.734375 Z M 12.53125 -15.75 C 11.851562 -15.75 11.257812 -15.601562 10.75 -15.3125 C 10.238281 -15.019531 9.859375 -14.613281 9.609375 -14.09375 L 15.46875 -14.09375 C 15.195312 -14.613281 14.804688 -15.019531 14.296875 -15.3125 C 13.785156 -15.601562 13.195312 -15.75 12.53125 -15.75 Z M 12.53125 -15.75 "/></g></g></g><g fill="#5271ff" fill-opacity="1"><g transform="translate(536.54691, 146.65907)"><g><path d="M 9.859375 -9.453125 L 9.859375 -0.03125 L 0.46875 0.03125 L 0.46875 -9.453125 Z M 9.859375 -9.453125 "/></g></g></g><g fill="#5271ff" fill-opacity="1"><g transform="translate(546.881859, 146.65907)"><g><path d="M 0.46875 -23.484375 L 11.234375 -23.484375 C 12.953125 -23.484375 14.539062 -23.160156 16 -22.515625 C 17.457031 -21.867188 18.628906 -20.878906 19.515625 -19.546875 C 20.410156 -18.222656 20.859375 -16.53125 20.859375 -14.46875 L 20.859375 0 L 11.453125 0 L 11.453125 -12.28125 C 11.453125 -12.820312 11.414062 -13.269531 11.34375 -13.625 C 11.269531 -13.976562 10.992188 -14.15625 10.515625 -14.15625 L 9.859375 -14.15625 L 9.859375 0 L 0.46875 0 Z M 0.46875 -23.484375 "/></g></g></g><g fill="#5271ff" fill-opacity="1"><g transform="translate(568.209461, 146.65907)"><g><path d="M 0.3125 -11.734375 C 0.3125 -13.515625 0.601562 -15.148438 1.1875 -16.640625 C 1.769531 -18.128906 2.609375 -19.414062 3.703125 -20.5 C 4.804688 -21.59375 6.101562 -22.441406 7.59375 -23.046875 C 9.082031 -23.648438 10.738281 -23.953125 12.5625 -23.953125 C 14.75 -23.953125 16.632812 -23.597656 18.21875 -22.890625 C 19.8125 -22.179688 21.082031 -21.210938 22.03125 -19.984375 C 22.976562 -18.765625 23.597656 -17.367188 23.890625 -15.796875 C 24.179688 -14.222656 24.117188 -12.554688 23.703125 -10.796875 L 9.734375 -10.796875 C 9.734375 -10.316406 9.988281 -9.960938 10.5 -9.734375 C 11.007812 -9.503906 11.6875 -9.390625 12.53125 -9.390625 C 12.675781 -9.390625 13.035156 -9.390625 13.609375 -9.390625 C 14.179688 -9.390625 14.875 -9.390625 15.6875 -9.390625 C 16.5 -9.390625 17.34375 -9.390625 18.21875 -9.390625 C 19.09375 -9.390625 19.90625 -9.390625 20.65625 -9.390625 C 21.414062 -9.390625 22.035156 -9.390625 22.515625 -9.390625 C 22.992188 -9.390625 23.234375 -9.390625 23.234375 -9.390625 L 23.234375 0 C 23.234375 0 22.332031 0 20.53125 0 C 18.738281 0 16.070312 0 12.53125 0 C 10.164062 0 8.0625 -0.46875 6.21875 -1.40625 C 4.382812 -2.34375 2.941406 -3.691406 1.890625 -5.453125 C 0.835938 -7.222656 0.3125 -9.316406 0.3125 -11.734375 Z M 12.53125 -15.75 C 11.851562 -15.75 11.257812 -15.601562 10.75 -15.3125 C 10.238281 -15.019531 9.859375 -14.613281 9.609375 -14.09375 L 15.46875 -14.09375 C 15.195312 -14.613281 14.804688 -15.019531 14.296875 -15.3125 C 13.785156 -15.601562 13.195312 -15.75 12.53125 -15.75 Z M 12.53125 -15.75 "/></g></g></g><g fill="#5271ff" fill-opacity="1"><g transform="translate(592.606228, 146.65907)"><g><path d="M 0.46875 -28.1875 L 9.765625 -28.1875 L 9.765625 -23.484375 L 12.90625 -23.484375 L 12.90625 -14.09375 L 9.796875 -14.09375 L 9.796875 -10.890625 C 9.796875 -10.390625 9.953125 -10.003906 10.265625 -9.734375 C 10.578125 -9.460938 10.941406 -9.328125 11.359375 -9.328125 L 12.875 -9.296875 L 12.875 0 L 10.078125 0 C 8.367188 0 6.78125 -0.316406 5.3125 -0.953125 C 3.851562 -1.585938 2.679688 -2.570312 1.796875 -3.90625 C 0.910156 -5.25 0.46875 -6.953125 0.46875 -9.015625 Z M 0.46875 -28.1875 "/></g></g></g></svg>